<svg width="1186" height="313" viewBox="0 0 1186 313" fill="none" xmlns="http://www.w3.org/2000/svg">
<path d="M0 47H178C178 47 176.111 31.7063 156.858 27.0448C148.517 25.0546 139.389 32.7538 129.421 23.2214C116.935 11.3321 118.037 -3.1236 97.6298 0.595079C75.4913 4.62801 86.5606 35.2678 62.1662 28.878C44.4869 24.2689 33.4176 19.817 14.2169 28.8256C1.88859 34.6393 0 47 0 47Z" fill="#6046AB"/>
<path d="M255 313H376C376 313 374.706 302.594 361.657 299.413C355.995 298.065 349.794 303.295 343 296.825C334.534 288.738 335.235 278.871 321.377 281.405C306.333 284.155 313.828 305.02 297.275 300.653C285.25 297.526 277.755 294.453 264.706 300.599C256.294 304.589 255 313 255 313Z" fill="#6046AB"/>
<path d="M1029 285.481H1185.67C1185.67 285.481 1184.03 271.986 1167.07 267.879C1159.76 266.119 1151.68 272.886 1142.92 264.515C1131.95 253.993 1132.88 241.241 1114.95 244.526C1095.46 248.086 1105.18 275.116 1083.77 269.483C1068.23 265.415 1058.5 261.464 1041.58 269.444C1030.68 274.607 1029 285.481 1029 285.481Z" fill="#6046AB"/>
<path d="M780 80.4342H970.461C970.461 80.4342 968.429 64.0053 947.84 59.0376C938.932 56.8862 929.165 65.1397 918.46 54.9303C905.098 42.1393 906.271 26.6492 884.47 30.6391C860.755 34.981 872.593 67.7996 846.534 60.9934C827.625 56.0647 815.787 51.2534 795.237 60.9543C782.032 67.2129 780 80.4342 780 80.4342Z" fill="#6046AB"/>
</svg>
