<svg width="726" height="412" viewBox="0 0 726 412" fill="none" xmlns="http://www.w3.org/2000/svg">
<path d="M25.7871 119.805C23.4744 117.36 22.1217 110.36 22.1217 110.36C22.1217 110.36 20.769 117.36 18.4564 119.805C16.1437 122.25 11.082 123.544 11.082 123.544C11.082 123.544 16.1001 124.839 18.4564 127.284C20.769 129.729 22.1217 136.728 22.1217 136.728C22.1217 136.728 23.4744 129.729 25.7871 127.284C28.0997 124.839 33.1614 123.544 33.1614 123.544C33.1614 123.544 28.0997 122.298 25.7871 119.805Z" fill="#FCE444"/>
<path d="M705.666 269.096C703.353 266.651 702.001 259.651 702.001 259.651C702.001 259.651 700.648 266.651 698.335 269.096C696.023 271.541 690.961 272.835 690.961 272.835C690.961 272.835 695.979 274.13 698.335 276.575C700.648 279.02 702.001 286.019 702.001 286.019C702.001 286.019 703.353 279.02 705.666 276.575C707.979 274.13 713.04 272.835 713.04 272.835C713.04 272.835 707.979 271.541 705.666 269.096Z" fill="#FCE444"/>
<path d="M73.9863 367.196C71.6736 364.751 70.3209 357.752 70.3209 357.752C70.3209 357.752 68.9683 364.751 66.6556 367.196C64.3429 369.641 59.2812 370.936 59.2812 370.936C59.2812 370.936 64.2993 372.23 66.6556 374.675C68.9683 377.12 70.3209 384.12 70.3209 384.12C70.3209 384.12 71.6736 377.12 73.9863 374.675C76.299 372.23 81.3606 370.936 81.3606 370.936C81.3606 370.936 76.3426 369.641 73.9863 367.196Z" fill="#FCE444"/>
<path d="M8.68339 102.162C7.3307 100.724 6.50163 96.6011 6.50163 96.6011C6.50163 96.6011 5.7162 100.724 4.31988 102.162C2.96719 103.601 0 104.368 0 104.368C0 104.368 2.96719 105.135 4.31988 106.573C5.67257 108.011 6.50163 112.134 6.50163 112.134C6.50163 112.134 7.28707 108.011 8.68339 106.573C10.0361 105.135 13.0033 104.368 13.0033 104.368C13.0033 104.368 10.0361 103.601 8.68339 102.162Z" fill="#FCE444"/>
<path d="M79.5799 5.56132C78.2272 4.12306 77.3981 0 77.3981 0C77.3981 0 76.6127 4.12306 75.2164 5.56132C73.8637 6.99958 70.8965 7.76664 70.8965 7.76664C70.8965 7.76664 73.8637 8.5337 75.2164 9.97196C76.5691 11.4102 77.3981 15.5332 77.3981 15.5332C77.3981 15.5332 78.1836 11.4102 79.5799 9.97196C80.9326 8.5337 83.8998 7.76664 83.8998 7.76664C83.8998 7.76664 80.9326 6.99958 79.5799 5.56132Z" fill="#FCE444"/>
<path d="M721.679 295.32C720.327 293.882 719.498 289.759 719.498 289.759C719.498 289.759 718.712 293.882 717.316 295.32C715.963 296.758 712.996 297.525 712.996 297.525C712.996 297.525 715.963 298.292 717.316 299.731C718.669 301.169 719.498 305.292 719.498 305.292C719.498 305.292 720.283 301.169 721.679 299.731C723.032 298.292 725.999 297.525 725.999 297.525C725.999 297.525 723.032 296.758 721.679 295.32Z" fill="#FCE444"/>
<path d="M672.921 78.2475C671.394 76.6174 670.521 72.015 670.521 72.015C670.521 72.015 669.648 76.6174 668.121 78.2475C666.594 79.8775 663.277 80.6925 663.277 80.6925C663.277 80.6925 666.594 81.5554 668.121 83.1375C669.648 84.7675 670.521 89.37 670.521 89.37C670.521 89.37 671.394 84.7675 672.921 83.1375C674.448 81.5075 677.764 80.6925 677.764 80.6925C677.764 80.6925 674.448 79.8295 672.921 78.2475Z" fill="#FCE444"/>
<path d="M533.919 400.217C532.392 398.587 531.519 393.984 531.519 393.984C531.519 393.984 530.646 398.587 529.119 400.217C527.592 401.847 524.275 402.662 524.275 402.662C524.275 402.662 527.592 403.525 529.119 405.107C530.646 406.737 531.519 411.339 531.519 411.339C531.519 411.339 532.392 406.737 533.919 405.107C535.446 403.477 538.762 402.662 538.762 402.662C538.762 402.662 535.446 401.799 533.919 400.217Z" fill="#FCE444"/>
</svg>
