<svg width="1235" height="417" viewBox="0 0 1235 417" fill="none" xmlns="http://www.w3.org/2000/svg">
<path d="M1234.2 303.093C1234.2 305.914 1231.92 308.186 1229.1 308.186C1226.28 308.186 1224 305.914 1224 303.093C1224 300.272 1226.28 298 1229.1 298C1231.92 298 1234.2 300.272 1234.2 303.093Z" fill="#6046AB"/>
<path d="M254.2 233.093C254.2 235.914 251.924 238.186 249.1 238.186C246.275 238.186 244 235.914 244 233.093C244 230.272 246.275 228 249.1 228C251.924 228 254.2 230.312 254.2 233.093Z" fill="#6046AB"/>
<path d="M1234.2 144.093C1234.2 146.914 1231.92 149.186 1229.1 149.186C1226.28 149.186 1224 146.914 1224 144.093C1224 141.272 1226.28 139 1229.1 139C1231.92 139 1234.2 141.272 1234.2 144.093Z" fill="#6046AB"/>
<path d="M1003.38 105.286C1003.38 108.107 1001.11 110.379 998.284 110.379C995.459 110.379 993.184 108.107 993.184 105.286C993.184 102.465 995.459 100.193 998.284 100.193C1001.11 100.193 1003.38 102.465 1003.38 105.286Z" fill="#6046AB"/>
<path d="M971.2 410.093C971.2 412.914 968.924 415.186 966.1 415.186C963.275 415.186 961 412.914 961 410.093C961 407.272 963.275 405 966.1 405C968.924 405 971.2 407.312 971.2 410.093Z" fill="#6046AB"/>
<path d="M137.669 356.33C137.669 358.172 136.178 359.66 134.335 359.66C132.491 359.66 131 358.172 131 356.33C131 354.489 132.491 353 134.335 353C136.178 353 137.669 354.489 137.669 356.33Z" fill="#6046AB"/>
<path d="M314.378 416.682C316.219 416.67 317.703 415.169 317.691 413.33C317.679 411.491 316.176 410.01 314.335 410.022C312.493 410.034 311.01 411.534 311.022 413.373C311.034 415.212 312.536 416.694 314.378 416.682Z" fill="#6046AB"/>
<path d="M236.669 251.33C236.669 253.172 235.178 254.66 233.335 254.66C231.491 254.66 230 253.172 230 251.33C230 249.489 231.491 248 233.335 248C235.178 248 236.669 249.489 236.669 251.33Z" fill="#6046AB"/>
<path d="M956.669 3.33092C956.669 5.17231 955.178 6.66109 953.335 6.66109C951.491 6.66109 950 5.17231 950 3.33092C950 1.48954 951.491 0.000755843 953.335 0.000755843C955.178 -0.0384226 956.669 1.45036 956.669 3.33092Z" fill="#6046AB"/>
<path d="M120.669 33.3302C120.669 35.1715 119.178 36.6603 117.335 36.6603C115.491 36.6603 114 35.1715 114 33.3302C114 31.4888 115.491 30 117.335 30C119.139 30 120.669 31.4888 120.669 33.3302Z" fill="#6046AB"/>
<path d="M6.66911 203.331C6.66911 205.172 5.17837 206.661 3.33456 206.661C1.49074 206.661 0 205.172 0 203.331C0 201.49 1.49074 200.001 3.33456 200.001C5.17837 199.962 6.66911 201.49 6.66911 203.331Z" fill="#6046AB"/>
<path d="M344.335 391.66C346.176 391.66 347.669 390.169 347.669 388.33C347.669 386.491 346.176 385 344.335 385C342.493 385 341 386.491 341 388.33C341 390.169 342.493 391.66 344.335 391.66Z" fill="#6046AB"/>
<path d="M1013.11 340.121C1013.11 341.963 1011.62 343.451 1009.78 343.451C1007.93 343.451 1006.44 341.963 1006.44 340.121C1006.44 338.28 1007.93 336.791 1009.78 336.791C1011.62 336.791 1013.11 338.28 1013.11 340.121Z" fill="#6046AB"/>
</svg>
