<svg width="575" height="209" viewBox="0 0 575 209" fill="none" xmlns="http://www.w3.org/2000/svg">
<path d="M184.177 160.049H148.341V206H111.927V160.049H0.951172V134.039L100.656 3.7H140.827L46.9022 128.259H113.083V87.51H148.341V128.259H184.177V160.049Z" fill="#826A5C"/>
<path d="M284.377 208.89C268.193 208.89 253.743 204.844 241.027 196.752C228.311 188.467 218.292 176.522 210.971 160.916C203.649 145.117 199.989 126.429 199.989 104.85C199.989 83.2713 203.649 64.679 210.971 49.073C218.292 33.2743 228.311 21.329 241.027 13.237C253.743 4.95233 268.193 0.809998 284.377 0.809998C300.561 0.809998 315.011 4.95233 327.727 13.237C340.635 21.329 350.75 33.2743 358.072 49.073C365.393 64.679 369.054 83.2713 369.054 104.85C369.054 126.429 365.393 145.117 358.072 160.916C350.75 176.522 340.635 188.467 327.727 196.752C315.011 204.844 300.561 208.89 284.377 208.89ZM284.377 176.233C298.827 176.233 310.194 170.26 318.479 158.315C326.956 146.37 331.195 128.548 331.195 104.85C331.195 81.152 326.956 63.3303 318.479 51.385C310.194 39.4397 298.827 33.467 284.377 33.467C270.119 33.467 258.752 39.4397 250.275 51.385C241.99 63.3303 237.848 81.152 237.848 104.85C237.848 128.548 241.99 146.37 250.275 158.315C258.752 170.26 270.119 176.233 284.377 176.233Z" fill="#826A5C"/>
<path d="M574.779 160.049H538.943V206H502.529V160.049H391.553V134.039L491.258 3.7H531.429L437.504 128.259H503.685V87.51H538.943V128.259H574.779V160.049Z" fill="#826A5C"/>
</svg>
