<svg width="72" height="72" viewBox="0 0 72 72" fill="none" xmlns="http://www.w3.org/2000/svg">
<rect width="72" height="72" rx="36" fill="#F7F7F7"/>
<path d="M43.2344 27H24.0795C23.183 27 22.3232 27.3561 21.6893 27.9901C21.0554 28.624 20.6992 29.4838 20.6992 30.3803V43.6197C20.6992 44.5162 21.0554 45.376 21.6893 46.0099C22.3232 46.6439 23.183 47 24.0795 47H43.2344C44.1309 47 44.9907 46.6439 45.6247 46.0099C46.2586 45.376 46.6147 44.5162 46.6147 43.6197V30.3803C46.6147 29.4838 46.2586 28.624 45.6247 27.9901C44.9907 27.3561 44.1309 27 43.2344 27ZM24.0795 29.2535H43.2344C43.5333 29.2535 43.8199 29.3722 44.0312 29.5835C44.2425 29.7949 44.3612 30.0814 44.3612 30.3803V39.7775L40.1358 35.8901C39.9392 35.7086 39.6845 35.603 39.4171 35.5922C39.1498 35.5813 38.8873 35.666 38.6767 35.831L34.4344 39.1775L29.2992 34.4648C29.0907 34.2707 28.8164 34.1629 28.5316 34.1629C28.2468 34.1629 27.9725 34.2707 27.764 34.4648L22.9527 39.0338V30.3803C22.9527 30.0814 23.0715 29.7949 23.2828 29.5835C23.4941 29.3722 23.7807 29.2535 24.0795 29.2535ZM43.2344 44.7465H24.0795C23.7807 44.7465 23.4941 44.6278 23.2828 44.4165C23.0715 44.2052 22.9527 43.9186 22.9527 43.6197V42.1324L28.5527 36.8479L35.2401 42.969C35.4616 43.1632 35.7505 43.2628 36.0446 43.2466C36.3388 43.2304 36.6149 43.0996 36.8138 42.8823C37.0127 42.665 37.1186 42.3784 37.1088 42.0839C37.0989 41.7895 36.9742 41.5106 36.7612 41.307L36.1189 40.7183L39.3246 38.1972L44.3612 42.8451V43.6197C44.3612 43.9186 44.2425 44.2052 44.0312 44.4165C43.8199 44.6278 43.5333 44.7465 43.2344 44.7465Z" fill="#4E9DD3"/>
<path d="M34.1593 36.2928C34.7769 36.2934 35.3807 36.1107 35.8944 35.768C36.4081 35.4252 36.8086 34.9378 37.0451 34.3674C37.2817 33.797 37.3438 33.1692 37.2234 32.5635C37.1031 31.9578 36.8058 31.4014 36.3691 30.9647C35.9324 30.528 35.3761 30.2307 34.7704 30.1104C34.1647 29.99 33.5369 30.0521 32.9664 30.2887C32.396 30.5253 31.9086 30.9257 31.5658 31.4394C31.2231 31.9531 31.0405 32.557 31.041 33.1745C31.0425 34.0011 31.3715 34.7934 31.956 35.3778C32.5405 35.9623 33.3328 36.2913 34.1593 36.2928ZM34.1593 32.3069C34.3309 32.3069 34.4987 32.3578 34.6413 32.4531C34.784 32.5484 34.8952 32.6839 34.9609 32.8425C35.0266 33.001 35.0437 33.1755 35.0103 33.3438C34.9768 33.5121 34.8942 33.6666 34.7728 33.788C34.6515 33.9093 34.4969 33.992 34.3286 34.0254C34.1603 34.0589 33.9858 34.0417 33.8273 33.9761C33.6688 33.9104 33.5333 33.7992 33.4379 33.6565C33.3426 33.5138 33.2917 33.3461 33.2917 33.1745C33.2917 32.9444 33.3831 32.7237 33.5458 32.561C33.7085 32.3983 33.9292 32.3069 34.1593 32.3069Z" fill="#4E9DD3"/>
<path d="M55.5793 38.4648L59.0186 38.4223C59.3986 38.4176 59.7105 38.1058 59.7148 37.7261L59.7205 37.2676C59.7252 36.8874 59.421 36.5832 59.0412 36.5882L55.602 36.6307L55.6447 33.191C55.6494 32.811 55.3452 32.5068 54.9654 32.5118L54.5066 32.5171C54.1265 32.5218 53.8147 32.8337 53.8103 33.2134L53.7678 36.6533L50.3286 36.6958C49.9484 36.7005 49.6366 37.0123 49.6323 37.3921L49.6266 37.8506C49.6219 38.2306 49.9262 38.5349 50.3059 38.5299L53.7452 38.4874L53.7027 41.9267C53.6981 42.3068 54.0023 42.611 54.382 42.606L54.8405 42.6004C55.2206 42.5956 55.5325 42.2838 55.5369 41.9041L55.5793 38.4648Z" fill="#4E9DD3"/>
</svg>
