<svg width="99" height="62" viewBox="0 0 99 62" fill="none" xmlns="http://www.w3.org/2000/svg">
<path d="M89.7751 37.9593C89.7751 51.245 71.943 62.0001 49.9397 62.0001C27.8321 61.8946 10 51.1395 10 37.9593C10 37.2212 10.1043 36.4831 10.2086 35.8504C11.9813 23.6192 29.0835 14.0239 49.9397 14.0239C70.796 14.0239 87.8981 23.6192 89.6709 35.9559C89.6709 36.4831 89.7751 37.2212 89.7751 37.9593Z" fill="#DAE3BF"/>
<path d="M89.5697 35.8503C88.944 38.8027 86.6498 41.2279 84.6685 44.3911C82.6872 47.5544 79.8716 50.085 75.7003 50.085C73.6147 50.085 71.3205 50.9285 69.5477 52.2993C66.7321 54.5136 62.8737 55.1462 59.4324 54.4081C56.4083 53.7755 52.967 53.9864 49.8386 55.0408C44.7288 56.6224 40.349 56.0952 36.0734 53.7755C32.215 51.6666 28.1481 50.5068 24.3939 50.1904C18.867 49.7687 15.7386 47.4489 13.653 43.0204C12.4016 40.2789 10.6288 38.2755 10.1074 35.8503C11.8802 23.619 28.9823 14.0238 49.8386 14.0238C70.6948 13.9184 87.7969 23.5136 89.5697 35.8503Z" fill="#CCD3B5"/>
<path d="M89.7751 31.2106C89.7751 34.9011 87.0638 37.5371 84.7696 41.2276C82.7883 44.3909 79.9727 46.9215 75.8015 46.9215C73.7158 46.9215 71.4216 47.765 69.6489 49.1358C66.729 51.35 62.9749 51.9827 59.5336 51.2446C56.5094 50.612 53.0681 50.8228 49.9397 51.8773C44.8299 53.4589 40.4501 52.9317 36.1746 50.612C32.3162 48.5031 28.2492 47.3433 24.4951 47.1324C18.8639 46.7106 15.7355 44.2854 13.6498 39.8569C12.1899 36.6936 10 34.2684 10 31.2106C10 19.8229 27.8321 10.6494 49.8354 10.6494C71.8388 10.6494 89.7751 19.8229 89.7751 31.2106Z" fill="#EA9B99"/>
<path d="M89.7751 24.0408C89.7751 37.3265 71.943 47.9761 49.9397 47.9761C27.8321 47.9761 10 37.221 10 24.0408C10 22.7755 10.2086 21.5102 10.5214 20.2449C13.5456 8.75169 30.022 0 49.8354 0C69.6489 0 86.2296 8.75169 89.2537 20.2449C89.5666 21.4047 89.7751 22.67 89.7751 24.0408Z" fill="#CCD3B5"/>
<path d="M89.2577 20.2449C86.2336 31.6326 69.7571 40.3843 49.8394 40.3843C29.9217 40.3843 13.5495 31.6326 10.5254 20.2449C13.5495 8.75169 30.026 0 49.8394 0C69.6529 0 86.2336 8.75169 89.2577 20.2449Z" fill="#DAE3BF"/>
<path d="M26.9102 35.2275H29.7283V58.4775L26.9102 57.0684V35.2275Z" fill="#CCD3B5"/>
<path d="M12.9186 31.0661L12.141 30.904H10.737C10.737 30.7447 10.8002 30.5963 10.8332 30.4397C9.87704 29.849 9.33303 28.7225 9.57482 27.5603C9.88254 26.0711 11.3415 25.115 12.8334 25.42L18.5785 26.6096H23.1833C25.5545 26.6096 27.475 28.5329 27.475 30.9068V35.2012H17.18C17.18 35.2012 13.1109 33.3631 12.9186 31.0661Z" fill="#CCD3B5"/>
<path d="M0 28.7584C0 27.5715 0.961636 26.6099 2.14582 26.6099L15.0317 28.7584H25.3267C26.5137 28.7584 27.4726 29.7228 27.4726 30.9043V35.2014H13.7377L2.14582 30.907C2.14582 30.907 0 29.9454 0 28.7584Z" fill="#FBAAA8"/>
<path d="M11.411 44.3866C11.411 44.3866 10.7065 52.8412 16.3428 55.6593C21.9792 58.4775 26.911 57.773 26.911 57.773V35.2275H13.9943L11.411 44.3866Z" fill="#DAE3BF"/>
<path d="M69.1836 35.2275H72.0018V57.773L69.1836 59.1821V35.2275Z" fill="#CCD3B5"/>
<path d="M85.9931 31.0661L86.7707 30.904H88.1747C88.1747 30.7447 88.1115 30.5963 88.0785 30.4397C89.0346 29.849 89.5787 28.7225 89.3369 27.5603C89.0292 26.0711 87.573 25.115 86.0811 25.42L80.336 26.6096H75.7311C73.36 26.6096 71.4395 28.5329 71.4395 30.9068V35.2012H81.7345C81.7317 35.2012 85.8008 33.3631 85.9931 31.0661Z" fill="#CCD3B5"/>
<path d="M98.9109 28.7584C98.9109 27.5715 97.9492 26.6099 96.765 26.6099L83.8764 28.7584H73.5814C72.3944 28.7584 71.4355 29.7228 71.4355 30.9043V35.2014H85.1732L96.765 30.907C96.765 30.907 98.9109 29.9454 98.9109 28.7584Z" fill="#FBAAA8"/>
<path d="M84.9167 49.3184C84.9167 49.3184 84.2121 54.2502 79.0454 56.3639C73.8788 58.4775 72 57.773 72 57.773V35.2275H84.9167V49.3184Z" fill="#DAE3BF"/>
<path d="M40.75 20.2753C42.6425 20.7262 44.6885 18.9439 45.3199 16.2943C45.9512 13.6447 44.9287 11.1312 43.0362 10.6803C41.1436 10.2293 39.0976 12.0117 38.4663 14.6613C37.8349 17.3109 38.8574 19.8244 40.75 20.2753Z" fill="#664500"/>
<path d="M58.5722 24.5214C60.4648 24.9723 62.5108 23.19 63.1421 20.5404C63.7734 17.8908 62.751 15.3773 60.8584 14.9264C58.9659 14.4754 56.9199 16.2578 56.2885 18.9074C55.6572 21.557 56.6797 24.0704 58.5722 24.5214Z" fill="#664500"/>
<path d="M57.2982 32.909L38.1081 28.3366C37.3515 28.1563 36.8834 27.3973 37.064 26.6393C37.2446 25.8813 38.0047 25.4149 38.7613 25.5952L57.9514 30.1676C58.7094 30.3482 59.1761 31.1069 58.9955 31.8649C58.8149 32.6229 58.0562 33.0896 57.2982 32.909Z" fill="#664500"/>
</svg>
