<svg width="203" height="164" viewBox="0 0 203 164" fill="none" xmlns="http://www.w3.org/2000/svg">
<path d="M152.337 82.7432C152.337 107.959 118.492 128.372 76.7304 128.372C34.7707 128.172 0.925781 107.759 0.925781 82.7432C0.925781 81.3423 1.1237 79.9414 1.32163 78.7407C4.68632 55.526 37.1457 37.3145 76.7304 37.3145C116.315 37.3145 148.775 55.526 152.139 78.9408C152.139 79.9414 152.337 81.3423 152.337 82.7432Z" fill="#FEBEBC"/>
<path d="M151.939 78.7408C150.751 84.3444 146.397 88.9473 142.636 94.9511C138.876 100.955 133.532 105.758 125.615 105.758C121.656 105.758 117.302 107.359 113.937 109.961C108.593 114.163 101.27 115.364 94.7389 113.963C88.9991 112.762 82.4676 113.163 76.5299 115.164C66.8317 118.166 58.5189 117.165 50.404 112.762C43.0808 108.76 35.3618 106.558 28.2366 105.958C17.7467 105.158 11.809 100.755 7.85049 92.3494C5.47541 87.1462 2.11071 83.3438 1.12109 78.7408C4.48579 55.5261 36.9452 37.3146 76.5299 37.3146C116.115 37.1145 148.574 55.326 151.939 78.7408Z" fill="#FBAAA8"/>
<path d="M152.337 69.9358C152.337 76.9403 147.191 81.9434 142.837 88.9478C139.076 94.9516 133.732 99.7547 125.815 99.7547C121.857 99.7547 117.503 101.356 114.138 103.957C108.596 108.16 101.471 109.361 94.9394 107.96C89.1996 106.759 82.6681 107.159 76.7304 109.161C67.0322 112.163 58.7194 111.162 50.6045 106.759C43.2814 102.757 35.5624 100.555 28.4371 100.155C17.7493 99.3544 11.8116 94.7515 7.8531 86.3462C5.08217 80.3424 0.925781 75.7395 0.925781 69.9358C0.925781 48.3221 34.7707 30.9111 76.5325 30.9111C118.294 30.9111 152.337 48.3221 152.337 69.9358Z" fill="#FF8364"/>
<path d="M152.337 56.3266C152.337 81.5426 118.492 101.755 76.7304 101.755C34.7707 101.755 0.925781 81.3425 0.925781 56.3266C0.925781 53.9251 1.32163 51.5236 1.9154 49.1221C7.65517 27.3083 38.9271 10.6978 76.5325 10.6978C114.138 10.6978 145.608 27.3083 151.348 49.1221C151.941 51.3235 152.337 53.725 152.337 56.3266Z" fill="#FBAAA8"/>
<path d="M151.348 49.1221C145.608 70.7357 114.337 87.3463 76.5331 87.3463C38.7298 87.3463 7.65579 70.7357 1.91602 49.1221C7.65579 27.3083 38.9277 10.6978 76.5331 10.6978C114.139 10.6978 145.608 27.3083 151.348 49.1221Z" fill="#FEBEBC"/>
<path d="M69.9939 44.8015C68.8733 44.8015 67.8303 44.0928 67.4559 42.9722C66.913 41.3703 64.7333 36.7783 61.9706 36.7783C59.1304 36.7783 56.9213 41.6644 56.4854 42.9722C56.0174 44.371 54.5117 45.1332 53.1023 44.6625C51.7009 44.1971 50.944 42.6807 51.412 41.2793C51.7463 40.2711 54.8995 31.4268 61.9733 31.4268C69.0472 31.4268 72.1976 40.2711 72.5346 41.2793C73.0026 42.6807 72.2458 44.1971 70.8444 44.6625C70.5609 44.7587 70.2747 44.8015 69.9939 44.8015ZM96.7381 44.8015C95.6175 44.8015 94.5745 44.0928 94.2028 42.9722C93.6598 41.3703 91.4775 36.7783 88.7148 36.7783C85.8746 36.7783 83.6629 41.6644 83.2269 42.9722C82.7589 44.371 81.2586 45.1332 79.8438 44.6625C78.4451 44.1971 77.6855 42.6807 78.1536 41.2793C78.4879 40.2711 81.641 31.4268 88.7122 31.4268C95.7833 31.4268 98.9365 40.2711 99.2708 41.2793C99.7388 42.6807 98.9819 44.1971 97.5805 44.6625C97.3024 44.7587 97.0189 44.8015 96.7381 44.8015ZM100.308 54.7851C99.8324 54.3546 99.121 54.3278 98.6102 54.7076C98.5059 54.7851 88.1211 62.4634 75.3427 62.4634C62.5965 62.4634 52.1769 54.7851 52.0753 54.7076C51.5645 54.3278 50.8531 54.3599 50.377 54.7851C49.9037 55.213 49.7967 55.9191 50.1256 56.4647C50.4706 57.0397 58.7292 70.4867 75.3427 70.4867C91.9562 70.4867 100.218 57.0397 100.56 56.4647C100.889 55.9164 100.784 55.2157 100.308 54.7851Z" fill="#664500"/>
<path d="M83.9779 10.0051C83.9779 10.647 84.0582 11.2674 84.1972 11.8665C85.3339 18.935 93.194 26.3913 98.8263 28.4399C103.279 26.8219 109.112 21.818 111.926 16.3007C106.339 9.77511 99.0376 4.76324 90.7201 1.96045C86.8904 2.64778 83.9779 5.97743 83.9779 10.0051ZM63.9572 77.216C64.1097 76.5688 64.1979 75.8948 64.1979 75.1994C64.1979 70.2972 60.2237 66.3231 55.3215 66.3231C52.3449 66.3231 49.7213 67.7913 48.1086 70.0378C46.4986 67.794 43.8723 66.3231 40.8957 66.3231C37.5767 66.3231 34.7151 68.1657 33.1934 70.8642C38.0715 79.6764 45.6294 86.7957 54.7706 91.1203C59.1486 87.5071 63.1442 82.276 63.9572 77.216ZM118.938 68.0267C118.184 65.486 115.857 63.6219 113.07 63.6219C111.008 63.6219 109.19 64.6382 108.074 66.1947C106.959 64.6382 105.141 63.6219 103.079 63.6219C99.6821 63.6219 96.9302 66.3739 96.9302 69.7704C96.9302 70.2518 96.9917 70.7171 97.096 71.1664C97.917 76.2612 103.376 81.586 107.55 83.3645C112.3 79.0854 116.191 73.8783 118.938 68.0267Z" fill="#FBAAA8"/>
<path d="M117.131 8.19175C117.131 3.66663 113.461 0 108.939 0C106.192 0 103.769 1.35593 102.282 3.42861C100.795 1.35593 98.3721 0 95.6255 0C91.1004 0 87.4338 3.66663 87.4338 8.19175C87.4338 8.83361 87.514 9.45407 87.6531 10.0531C88.7924 17.1216 96.6498 24.5779 102.282 26.6265C107.914 24.5779 115.772 17.1216 116.909 10.0558C117.05 9.45408 117.131 8.83361 117.131 8.19175ZM59.8525 75.424C59.8525 70.5218 55.8783 66.5476 50.9761 66.5476C47.9994 66.5476 45.3758 68.0159 43.7631 70.2624C42.1531 68.0159 39.5269 66.5476 36.5502 66.5476C31.648 66.5476 27.6738 70.5218 27.6738 75.424C27.6738 76.1194 27.7621 76.7906 27.9119 77.4405C29.1448 85.0974 37.6574 93.1768 43.7605 95.3966C49.8635 93.1795 58.3762 85.1001 59.6091 77.4432C59.7642 76.7906 59.8525 76.1167 59.8525 75.424ZM123.343 69.3237C123.343 65.9271 120.591 63.1752 117.195 63.1752C115.133 63.1752 113.314 64.1914 112.199 65.748C111.084 64.1914 109.265 63.1752 107.203 63.1752C103.807 63.1752 101.055 65.9271 101.055 69.3237C101.055 69.805 101.116 70.2704 101.22 70.7197C102.074 76.0231 107.971 81.6206 112.199 83.1558C116.424 81.6206 122.324 76.0231 123.175 70.7197C123.282 70.2704 123.343 69.805 123.343 69.3237Z" fill="#DD2E44"/>
<path d="M186.573 164H134.529L128.104 103.159H196.271L186.573 164Z" fill="#FFC34D"/>
<path d="M129.5 116.357H194.168L196.271 103.159H128.104L129.5 116.357Z" fill="#E5954B"/>
<path d="M202.501 94.3652H121.871V110.857H202.501V94.3652Z" fill="#FFD84D"/>
<path d="M165.608 94.3652H158.766V164H165.608V94.3652Z" fill="#DD2E44"/>
<path d="M146.846 70.3574C154.193 66.6798 162.255 94.3651 162.255 94.3651H158.838C158.838 94.3651 137.28 87.4934 137.264 83.4315C137.247 79.2457 139.495 74.0392 146.846 70.3574ZM158.829 92.3486C158.829 92.3486 146.821 79.9812 144.239 80.1589C141.656 80.3365 141.276 81.3076 141.053 82.0679C140.214 84.9232 158.838 92.3486 158.838 92.3486H158.829Z" fill="#DD2E44"/>
<path d="M177.596 70.3574C170.25 66.6798 162.184 94.3651 162.184 94.3651H165.605C165.605 94.3651 187.162 87.4934 187.179 83.4315C187.195 79.2457 184.943 74.0392 177.596 70.3574ZM165.613 92.3486C165.613 92.3486 177.621 79.9812 180.204 80.1589C182.786 80.3365 183.167 81.3076 183.39 82.0679C184.216 84.9232 165.605 92.3486 165.605 92.3486H165.613Z" fill="#DD2E44"/>
</svg>
