<svg width="132" height="24" viewBox="0 0 132 24" fill="none" xmlns="http://www.w3.org/2000/svg">
<path d="M16.1826 20.9826H8.81739C7.86087 20.9826 7 20.2174 7 19.1652V4.81739C7 3.86087 7.76522 3 8.81739 3H16.1826C17.1391 3 18 3.76522 18 4.81739V19.1652C18 20.1217 17.1391 20.9826 16.1826 20.9826Z" stroke="black" stroke-miterlimit="10" stroke-linecap="round" stroke-linejoin="round"/>
<path d="M8.72168 17.3477H16.2782" stroke="black" stroke-miterlimit="10" stroke-linecap="round" stroke-linejoin="round"/>
<path d="M12.3566 19.8347C12.7264 19.8347 13.0261 19.535 13.0261 19.1652C13.0261 18.7954 12.7264 18.4956 12.3566 18.4956C11.9868 18.4956 11.687 18.7954 11.687 19.1652C11.687 19.535 11.9868 19.8347 12.3566 19.8347Z" fill="black"/>
<path d="M35.454 15.982C34.8193 16.4393 34.026 16.668 33.074 16.668C32.122 16.668 31.324 16.4393 30.68 15.982C30.0453 15.5247 29.728 14.9087 29.728 14.134C29.728 13.546 29.938 13.0373 30.358 12.608C30.7873 12.1787 31.3193 11.8707 31.954 11.684C31.3567 11.516 30.862 11.2453 30.47 10.872C30.078 10.4893 29.882 10.0133 29.882 9.444C29.882 8.66 30.1993 8.06267 30.834 7.652C31.4687 7.232 32.2153 7.022 33.074 7.022C33.9327 7.022 34.6793 7.232 35.314 7.652C35.958 8.06267 36.28 8.66 36.28 9.444C36.28 10.0133 36.084 10.4893 35.692 10.872C35.3 11.2453 34.8007 11.516 34.194 11.684C34.8287 11.8707 35.356 12.1787 35.776 12.608C36.2053 13.0373 36.42 13.546 36.42 14.134C36.42 14.8993 36.098 15.5153 35.454 15.982ZM33.074 11.208C33.2607 11.18 33.4473 11.1333 33.634 11.068C33.83 11.0027 34.0493 10.914 34.292 10.802C34.5347 10.6807 34.7307 10.5173 34.88 10.312C35.0293 10.0973 35.104 9.85933 35.104 9.598C35.104 9.13133 34.908 8.758 34.516 8.478C34.1333 8.198 33.6527 8.058 33.074 8.058C32.486 8.058 32.0007 8.198 31.618 8.478C31.2353 8.758 31.044 9.13133 31.044 9.598C31.044 9.85933 31.1187 10.0973 31.268 10.312C31.4173 10.5173 31.6133 10.6807 31.856 10.802C32.0987 10.914 32.3133 11.0027 32.5 11.068C32.696 11.124 32.8873 11.1707 33.074 11.208ZM33.074 15.632C33.6713 15.632 34.18 15.4827 34.6 15.184C35.0293 14.8853 35.244 14.4933 35.244 14.008C35.244 13.6347 35.0947 13.308 34.796 13.028C34.5067 12.7387 34.208 12.538 33.9 12.426C33.6013 12.3047 33.326 12.23 33.074 12.202C32.822 12.23 32.542 12.3047 32.234 12.426C31.9353 12.538 31.6367 12.7387 31.338 13.028C31.0393 13.308 30.89 13.6347 30.89 14.008C30.89 14.4933 31.1 14.8853 31.52 15.184C31.9493 15.4827 32.4673 15.632 33.074 15.632ZM47.1981 15.982C46.5635 16.4393 45.7701 16.668 44.8181 16.668C43.8661 16.668 43.0681 16.4393 42.4241 15.982C41.7895 15.5247 41.4721 14.9087 41.4721 14.134C41.4721 13.546 41.6821 13.0373 42.1021 12.608C42.5315 12.1787 43.0635 11.8707 43.6981 11.684C43.1008 11.516 42.6061 11.2453 42.2141 10.872C41.8221 10.4893 41.6261 10.0133 41.6261 9.444C41.6261 8.66 41.9435 8.06267 42.5781 7.652C43.2128 7.232 43.9595 7.022 44.8181 7.022C45.6768 7.022 46.4235 7.232 47.0581 7.652C47.7021 8.06267 48.0241 8.66 48.0241 9.444C48.0241 10.0133 47.8281 10.4893 47.4361 10.872C47.0441 11.2453 46.5448 11.516 45.9381 11.684C46.5728 11.8707 47.1001 12.1787 47.5201 12.608C47.9495 13.0373 48.1641 13.546 48.1641 14.134C48.1641 14.8993 47.8421 15.5153 47.1981 15.982ZM44.8181 11.208C45.0048 11.18 45.1915 11.1333 45.3781 11.068C45.5741 11.0027 45.7935 10.914 46.0361 10.802C46.2788 10.6807 46.4748 10.5173 46.6241 10.312C46.7735 10.0973 46.8481 9.85933 46.8481 9.598C46.8481 9.13133 46.6521 8.758 46.2601 8.478C45.8775 8.198 45.3968 8.058 44.8181 8.058C44.2301 8.058 43.7448 8.198 43.3621 8.478C42.9795 8.758 42.7881 9.13133 42.7881 9.598C42.7881 9.85933 42.8628 10.0973 43.0121 10.312C43.1615 10.5173 43.3575 10.6807 43.6001 10.802C43.8428 10.914 44.0575 11.0027 44.2441 11.068C44.4401 11.124 44.6315 11.1707 44.8181 11.208ZM44.8181 15.632C45.4155 15.632 45.9241 15.4827 46.3441 15.184C46.7735 14.8853 46.9881 14.4933 46.9881 14.008C46.9881 13.6347 46.8388 13.308 46.5401 13.028C46.2508 12.7387 45.9521 12.538 45.6441 12.426C45.3455 12.3047 45.0701 12.23 44.8181 12.202C44.5661 12.23 44.2861 12.3047 43.9781 12.426C43.6795 12.538 43.3808 12.7387 43.0821 13.028C42.7835 13.308 42.6341 13.6347 42.6341 14.008C42.6341 14.4933 42.8441 14.8853 43.2641 15.184C43.6935 15.4827 44.2115 15.632 44.8181 15.632ZM52.5329 16.5H51.3709V8.702L49.8729 10.284L49.1729 9.57L51.5109 7.162H52.5329V16.5ZM60.791 16.5H54.379V15.576C55.3497 14.8107 56.101 14.204 56.633 13.756C57.1744 13.2987 57.6924 12.818 58.187 12.314C58.691 11.8007 59.0457 11.348 59.251 10.956C59.4564 10.5547 59.559 10.158 59.559 9.766C59.559 9.206 59.3677 8.78133 58.985 8.492C58.6024 8.20267 58.145 8.058 57.613 8.058C56.5397 8.058 55.695 8.45 55.079 9.234L54.365 8.492C54.7197 8.02533 55.1817 7.666 55.751 7.414C56.3297 7.15267 56.9504 7.022 57.613 7.022C58.4624 7.022 59.195 7.26 59.811 7.736C60.4364 8.212 60.749 8.88867 60.749 9.766C60.749 10.634 60.3757 11.502 59.629 12.37C58.8824 13.2287 57.7437 14.26 56.213 15.464H60.791V16.5ZM69.1869 16.668C68.4402 16.668 67.7776 16.5233 67.1989 16.234C66.6202 15.9447 66.1769 15.576 65.8689 15.128L66.5549 14.4C66.8349 14.7733 67.2036 15.072 67.6609 15.296C68.1182 15.52 68.6176 15.632 69.1589 15.632C69.8402 15.632 70.3722 15.478 70.7549 15.17C71.1469 14.8527 71.3429 14.4233 71.3429 13.882C71.3429 13.322 71.1329 12.9067 70.7129 12.636C70.3022 12.3653 69.7376 12.23 69.0189 12.23C68.4682 12.23 68.1462 12.2347 68.0529 12.244V11.18C68.1556 11.1893 68.4776 11.194 69.0189 11.194C69.6536 11.194 70.1716 11.068 70.5729 10.816C70.9836 10.5547 71.1889 10.1673 71.1889 9.654C71.1889 9.15933 70.9882 8.772 70.5869 8.492C70.1949 8.20267 69.7002 8.058 69.1029 8.058C68.1602 8.058 67.3389 8.436 66.6389 9.192L65.9949 8.464C66.7882 7.50267 67.8522 7.022 69.1869 7.022C70.1109 7.022 70.8669 7.246 71.4549 7.694C72.0522 8.13267 72.3509 8.73933 72.3509 9.514C72.3509 10.13 72.1456 10.6247 71.7349 10.998C71.3242 11.362 70.8576 11.5907 70.3349 11.684C70.8482 11.7307 71.3336 11.9547 71.7909 12.356C72.2576 12.7573 72.4909 13.2987 72.4909 13.98C72.4909 14.7733 72.1922 15.422 71.5949 15.926C70.9976 16.4207 70.1949 16.668 69.1869 16.668ZM77.5399 16.668C76.9239 16.668 76.3779 16.528 75.9019 16.248C75.4352 15.9587 75.0619 15.576 74.7819 15.1C74.5112 14.624 74.3059 14.1107 74.1659 13.56C74.0352 13.0093 73.9699 12.4353 73.9699 11.838C73.9699 11.2407 74.0352 10.6667 74.1659 10.116C74.3059 9.56533 74.5112 9.05667 74.7819 8.59C75.0619 8.114 75.4352 7.736 75.9019 7.456C76.3779 7.16667 76.9239 7.022 77.5399 7.022C78.1465 7.022 78.6879 7.16667 79.1639 7.456C79.6399 7.736 80.0132 8.114 80.2839 8.59C80.5639 9.05667 80.7692 9.56533 80.8999 10.116C81.0399 10.6667 81.1099 11.2407 81.1099 11.838C81.1099 12.4353 81.0399 13.0093 80.8999 13.56C80.7692 14.1107 80.5639 14.624 80.2839 15.1C80.0132 15.576 79.6399 15.9587 79.1639 16.248C78.6879 16.528 78.1465 16.668 77.5399 16.668ZM76.1399 15.058C76.5132 15.4407 76.9799 15.632 77.5399 15.632C78.0999 15.632 78.5665 15.4407 78.9399 15.058C79.3132 14.666 79.5699 14.1993 79.7099 13.658C79.8499 13.1167 79.9199 12.51 79.9199 11.838C79.9199 11.166 79.8499 10.5593 79.7099 10.018C79.5699 9.47667 79.3132 9.01467 78.9399 8.632C78.5665 8.24933 78.0999 8.058 77.5399 8.058C76.9799 8.058 76.5132 8.24933 76.1399 8.632C75.7665 9.01467 75.5099 9.47667 75.3699 10.018C75.2299 10.5593 75.1599 11.166 75.1599 11.838C75.1599 12.51 75.2299 13.1167 75.3699 13.658C75.5099 14.1993 75.7665 14.666 76.1399 15.058ZM85.5941 16.654C84.5208 16.654 83.6575 16.2807 83.0041 15.534L83.5921 14.666C84.1335 15.3007 84.8008 15.618 85.5941 15.618C86.1915 15.618 86.6955 15.4313 87.1061 15.058C87.5168 14.6847 87.8061 14.232 87.9741 13.7C88.1421 13.168 88.2261 12.5893 88.2261 11.964C88.2261 11.796 88.2215 11.67 88.2121 11.586C87.9788 11.9593 87.6195 12.2953 87.1341 12.594C86.6488 12.8927 86.1308 13.042 85.5801 13.042C84.6935 13.042 83.9608 12.7853 83.3821 12.272C82.8035 11.7493 82.5141 11.012 82.5141 10.06C82.5141 9.22 82.8128 8.50133 83.4101 7.904C84.0075 7.30667 84.7961 7.008 85.7761 7.008C86.4108 7.008 86.9661 7.13867 87.4421 7.4C87.9181 7.66133 88.2915 8.02067 88.5621 8.478C88.8421 8.93533 89.0475 9.444 89.1781 10.004C89.3181 10.564 89.3881 11.1753 89.3881 11.838C89.3881 12.7153 89.2575 13.5087 88.9961 14.218C88.7348 14.918 88.3101 15.5013 87.7221 15.968C87.1435 16.4253 86.4341 16.654 85.5941 16.654ZM85.8461 12.034C86.3035 12.034 86.7421 11.908 87.1621 11.656C87.5915 11.404 87.9275 11.068 88.1701 10.648C88.1141 9.95733 87.8948 9.35067 87.5121 8.828C87.1295 8.30533 86.5695 8.044 85.8321 8.044C85.1695 8.044 84.6468 8.24933 84.2641 8.66C83.8815 9.07067 83.6901 9.52333 83.6901 10.018C83.6901 10.6713 83.8908 11.1707 84.2921 11.516C84.6935 11.8613 85.2115 12.034 85.8461 12.034ZM93.8796 13.574H90.5196V12.65H93.8796V13.574ZM100.751 15.982C100.116 16.4393 99.3229 16.668 98.3709 16.668C97.4189 16.668 96.6209 16.4393 95.9769 15.982C95.3422 15.5247 95.0249 14.9087 95.0249 14.134C95.0249 13.546 95.2349 13.0373 95.6549 12.608C96.0842 12.1787 96.6162 11.8707 97.2509 11.684C96.6535 11.516 96.1589 11.2453 95.7669 10.872C95.3749 10.4893 95.1789 10.0133 95.1789 9.444C95.1789 8.66 95.4962 8.06267 96.1309 7.652C96.7655 7.232 97.5122 7.022 98.3709 7.022C99.2295 7.022 99.9762 7.232 100.611 7.652C101.255 8.06267 101.577 8.66 101.577 9.444C101.577 10.0133 101.381 10.4893 100.989 10.872C100.597 11.2453 100.098 11.516 99.4909 11.684C100.126 11.8707 100.653 12.1787 101.073 12.608C101.502 13.0373 101.717 13.546 101.717 14.134C101.717 14.8993 101.395 15.5153 100.751 15.982ZM98.3709 11.208C98.5575 11.18 98.7442 11.1333 98.9309 11.068C99.1269 11.0027 99.3462 10.914 99.5889 10.802C99.8315 10.6807 100.028 10.5173 100.177 10.312C100.326 10.0973 100.401 9.85933 100.401 9.598C100.401 9.13133 100.205 8.758 99.8129 8.478C99.4302 8.198 98.9495 8.058 98.3709 8.058C97.7829 8.058 97.2975 8.198 96.9149 8.478C96.5322 8.758 96.3409 9.13133 96.3409 9.598C96.3409 9.85933 96.4155 10.0973 96.5649 10.312C96.7142 10.5173 96.9102 10.6807 97.1529 10.802C97.3955 10.914 97.6102 11.0027 97.7969 11.068C97.9929 11.124 98.1842 11.1707 98.3709 11.208ZM98.3709 15.632C98.9682 15.632 99.4769 15.4827 99.8969 15.184C100.326 14.8853 100.541 14.4933 100.541 14.008C100.541 13.6347 100.392 13.308 100.093 13.028C99.8035 12.7387 99.5049 12.538 99.1969 12.426C98.8982 12.3047 98.6229 12.23 98.3709 12.202C98.1189 12.23 97.8389 12.3047 97.5309 12.426C97.2322 12.538 96.9335 12.7387 96.6349 13.028C96.3362 13.308 96.1869 13.6347 96.1869 14.008C96.1869 14.4933 96.3969 14.8853 96.8169 15.184C97.2462 15.4827 97.7642 15.632 98.3709 15.632ZM109.6 16.5H103.188V15.576C104.158 14.8107 104.91 14.204 105.442 13.756C105.983 13.2987 106.501 12.818 106.996 12.314C107.5 11.8007 107.854 11.348 108.06 10.956C108.265 10.5547 108.368 10.158 108.368 9.766C108.368 9.206 108.176 8.78133 107.794 8.492C107.411 8.20267 106.954 8.058 106.422 8.058C105.348 8.058 104.504 8.45 103.888 9.234L103.174 8.492C103.528 8.02533 103.99 7.666 104.56 7.414C105.138 7.15267 105.759 7.022 106.422 7.022C107.271 7.022 108.004 7.26 108.62 7.736C109.245 8.212 109.558 8.88867 109.558 9.766C109.558 10.634 109.184 11.502 108.438 12.37C107.691 13.2287 106.552 14.26 105.022 15.464H109.6V16.5ZM114.442 13.574H111.082V12.65H114.442V13.574ZM121.313 15.982C120.679 16.4393 119.885 16.668 118.933 16.668C117.981 16.668 117.183 16.4393 116.539 15.982C115.905 15.5247 115.587 14.9087 115.587 14.134C115.587 13.546 115.797 13.0373 116.217 12.608C116.647 12.1787 117.179 11.8707 117.813 11.684C117.216 11.516 116.721 11.2453 116.329 10.872C115.937 10.4893 115.741 10.0133 115.741 9.444C115.741 8.66 116.059 8.06267 116.693 7.652C117.328 7.232 118.075 7.022 118.933 7.022C119.792 7.022 120.539 7.232 121.173 7.652C121.817 8.06267 122.139 8.66 122.139 9.444C122.139 10.0133 121.943 10.4893 121.551 10.872C121.159 11.2453 120.66 11.516 120.053 11.684C120.688 11.8707 121.215 12.1787 121.635 12.608C122.065 13.0373 122.279 13.546 122.279 14.134C122.279 14.8993 121.957 15.5153 121.313 15.982ZM118.933 11.208C119.12 11.18 119.307 11.1333 119.493 11.068C119.689 11.0027 119.909 10.914 120.151 10.802C120.394 10.6807 120.59 10.5173 120.739 10.312C120.889 10.0973 120.963 9.85933 120.963 9.598C120.963 9.13133 120.767 8.758 120.375 8.478C119.993 8.198 119.512 8.058 118.933 8.058C118.345 8.058 117.86 8.198 117.477 8.478C117.095 8.758 116.903 9.13133 116.903 9.598C116.903 9.85933 116.978 10.0973 117.127 10.312C117.277 10.5173 117.473 10.6807 117.715 10.802C117.958 10.914 118.173 11.0027 118.359 11.068C118.555 11.124 118.747 11.1707 118.933 11.208ZM118.933 15.632C119.531 15.632 120.039 15.4827 120.459 15.184C120.889 14.8853 121.103 14.4933 121.103 14.008C121.103 13.6347 120.954 13.308 120.655 13.028C120.366 12.7387 120.067 12.538 119.759 12.426C119.461 12.3047 119.185 12.23 118.933 12.202C118.681 12.23 118.401 12.3047 118.093 12.426C117.795 12.538 117.496 12.7387 117.197 13.028C116.899 13.308 116.749 13.6347 116.749 14.008C116.749 14.4933 116.959 14.8853 117.379 15.184C117.809 15.4827 118.327 15.632 118.933 15.632ZM129.448 15.982C128.813 16.4393 128.02 16.668 127.068 16.668C126.116 16.668 125.318 16.4393 124.674 15.982C124.039 15.5247 123.722 14.9087 123.722 14.134C123.722 13.546 123.932 13.0373 124.352 12.608C124.781 12.1787 125.313 11.8707 125.948 11.684C125.351 11.516 124.856 11.2453 124.464 10.872C124.072 10.4893 123.876 10.0133 123.876 9.444C123.876 8.66 124.193 8.06267 124.828 7.652C125.463 7.232 126.209 7.022 127.068 7.022C127.927 7.022 128.673 7.232 129.308 7.652C129.952 8.06267 130.274 8.66 130.274 9.444C130.274 10.0133 130.078 10.4893 129.686 10.872C129.294 11.2453 128.795 11.516 128.188 11.684C128.823 11.8707 129.35 12.1787 129.77 12.608C130.199 13.0373 130.414 13.546 130.414 14.134C130.414 14.8993 130.092 15.5153 129.448 15.982ZM127.068 11.208C127.255 11.18 127.441 11.1333 127.628 11.068C127.824 11.0027 128.043 10.914 128.286 10.802C128.529 10.6807 128.725 10.5173 128.874 10.312C129.023 10.0973 129.098 9.85933 129.098 9.598C129.098 9.13133 128.902 8.758 128.51 8.478C128.127 8.198 127.647 8.058 127.068 8.058C126.48 8.058 125.995 8.198 125.612 8.478C125.229 8.758 125.038 9.13133 125.038 9.598C125.038 9.85933 125.113 10.0973 125.262 10.312C125.411 10.5173 125.607 10.6807 125.85 10.802C126.093 10.914 126.307 11.0027 126.494 11.068C126.69 11.124 126.881 11.1707 127.068 11.208ZM127.068 15.632C127.665 15.632 128.174 15.4827 128.594 15.184C129.023 14.8853 129.238 14.4933 129.238 14.008C129.238 13.6347 129.089 13.308 128.79 13.028C128.501 12.7387 128.202 12.538 127.894 12.426C127.595 12.3047 127.32 12.23 127.068 12.202C126.816 12.23 126.536 12.3047 126.228 12.426C125.929 12.538 125.631 12.7387 125.332 13.028C125.033 13.308 124.884 13.6347 124.884 14.008C124.884 14.4933 125.094 14.8853 125.514 15.184C125.943 15.4827 126.461 15.632 127.068 15.632Z" fill="black" fill-opacity="0.88"/>
</svg>
