<svg width="110" height="10" viewBox="0 0 110 10" fill="none" xmlns="http://www.w3.org/2000/svg">
<path d="M5.516 9.668C4.15333 9.668 3.01 9.22 2.086 8.324C1.17133 7.41867 0.714 6.25667 0.714 4.838C0.714 3.41933 1.17133 2.262 2.086 1.366C3.01 0.460666 4.15333 0.00799954 5.516 0.00799954C7.00933 0.00799954 8.19 0.624 9.058 1.856L8.078 2.402C7.80733 2.00067 7.44333 1.674 6.986 1.422C6.52867 1.17 6.03867 1.044 5.516 1.044C4.48933 1.044 3.63067 1.40333 2.94 2.122C2.25867 2.83133 1.918 3.73667 1.918 4.838C1.918 5.93933 2.25867 6.84933 2.94 7.568C3.63067 8.27733 4.48933 8.632 5.516 8.632C6.03867 8.632 6.52867 8.51067 6.986 8.268C7.44333 8.016 7.80733 7.68467 8.078 7.274L9.072 7.82C8.16667 9.052 6.98133 9.668 5.516 9.668ZM14.8089 9.668C13.4369 9.668 12.3216 9.21067 11.4629 8.296C10.6043 7.38133 10.1749 6.22867 10.1749 4.838C10.1749 3.44733 10.6043 2.29467 11.4629 1.38C12.3216 0.465333 13.4369 0.00799954 14.8089 0.00799954C16.1716 0.00799954 17.2823 0.465333 18.1409 1.38C19.0089 2.29467 19.4429 3.44733 19.4429 4.838C19.4429 6.22867 19.0089 7.38133 18.1409 8.296C17.2823 9.21067 16.1716 9.668 14.8089 9.668ZM14.8089 8.632C15.8356 8.632 16.6616 8.27733 17.2869 7.568C17.9216 6.84933 18.2389 5.93933 18.2389 4.838C18.2389 3.72733 17.9216 2.81733 17.2869 2.108C16.6616 1.39867 15.8356 1.044 14.8089 1.044C13.7729 1.044 12.9423 1.39867 12.3169 2.108C11.6916 2.81733 11.3789 3.72733 11.3789 4.838C11.3789 5.93933 11.6916 6.84933 12.3169 7.568C12.9423 8.27733 13.7729 8.632 14.8089 8.632ZM21.258 0.161999H27.32V1.198H22.42V3.872H25.01C25.906 3.872 26.6153 4.14267 27.138 4.684C27.67 5.22533 27.936 5.89267 27.936 6.686C27.936 7.47933 27.6747 8.14667 27.152 8.688C26.6293 9.22933 25.9153 9.5 25.01 9.5H21.258V0.161999ZM24.87 4.908H22.42V8.464H24.87C25.4207 8.464 25.8687 8.30067 26.214 7.974C26.5593 7.638 26.732 7.20867 26.732 6.686C26.732 6.16333 26.5593 5.73867 26.214 5.412C25.8687 5.076 25.4207 4.908 24.87 4.908ZM30.6368 9.5H29.4748V0.161999H33.2268C34.1321 0.161999 34.8461 0.432666 35.3688 0.974C35.8915 1.51533 36.1528 2.18267 36.1528 2.976C36.1528 3.76933 35.8868 4.43667 35.3548 4.978C34.8321 5.51933 34.1228 5.79 33.2268 5.79H30.6368V9.5ZM33.0868 4.754C33.6375 4.754 34.0855 4.59067 34.4308 4.264C34.7761 3.928 34.9488 3.49867 34.9488 2.976C34.9488 2.45333 34.7761 2.02867 34.4308 1.702C34.0855 1.366 33.6375 1.198 33.0868 1.198H30.6368V4.754H33.0868ZM44.6055 9.5H43.2755L42.4495 7.428H37.8015L36.9755 9.5H35.6455L39.3975 0.161999H40.8395L44.6055 9.5ZM42.0995 6.392L40.1255 1.366L38.1375 6.392H42.0995ZM48.355 9.5H47.193V1.198H44.239V0.161999H51.323V1.198H48.355V9.5ZM52.8674 0.161999H54.0294V3.872H56.6194C57.5154 3.872 58.2247 4.14267 58.7474 4.684C59.2794 5.22533 59.5454 5.89267 59.5454 6.686C59.5454 7.47933 59.2841 8.14667 58.7614 8.688C58.2387 9.22933 57.5247 9.5 56.6194 9.5H52.8674V0.161999ZM56.4794 4.908H54.0294V8.464H56.4794C57.0301 8.464 57.4781 8.30067 57.8234 7.974C58.1687 7.638 58.3414 7.20867 58.3414 6.686C58.3414 6.16333 58.1687 5.73867 57.8234 5.412C57.4781 5.076 57.0301 4.908 56.4794 4.908ZM72.4776 9.5H71.3156V5.216H65.8556V9.5H64.6936V0.161999H65.8556V4.18H71.3156V0.161999H72.4776V9.5ZM82.6544 9.5H81.3244L80.4984 7.428H75.8504L75.0244 9.5H73.6944L77.4464 0.161999H78.8884L82.6544 9.5ZM80.1484 6.392L78.1744 1.366L76.1864 6.392H80.1484ZM83.8752 0.161999H89.9372V1.198H85.0372V3.872H87.6272C88.5232 3.872 89.2325 4.14267 89.7552 4.684C90.2872 5.22533 90.5532 5.89267 90.5532 6.686C90.5532 7.47933 90.2919 8.14667 89.7692 8.688C89.2465 9.22933 88.5325 9.5 87.6272 9.5H83.8752V0.161999ZM87.4872 4.908H85.0372V8.464H87.4872C88.0379 8.464 88.4859 8.30067 88.8312 7.974C89.1765 7.638 89.3492 7.20867 89.3492 6.686C89.3492 6.16333 89.1765 5.73867 88.8312 5.412C88.4859 5.076 88.0379 4.908 87.4872 4.908ZM96.348 9.668C94.976 9.668 93.8607 9.21067 93.002 8.296C92.1433 7.38133 91.714 6.22867 91.714 4.838C91.714 3.44733 92.1433 2.29467 93.002 1.38C93.8607 0.465333 94.976 0.00799954 96.348 0.00799954C97.7107 0.00799954 98.8213 0.465333 99.68 1.38C100.548 2.29467 100.982 3.44733 100.982 4.838C100.982 6.22867 100.548 7.38133 99.68 8.296C98.8213 9.21067 97.7107 9.668 96.348 9.668ZM96.348 8.632C97.3747 8.632 98.2007 8.27733 98.826 7.568C99.4607 6.84933 99.778 5.93933 99.778 4.838C99.778 3.72733 99.4607 2.81733 98.826 2.108C98.2007 1.39867 97.3747 1.044 96.348 1.044C95.312 1.044 94.4813 1.39867 93.856 2.108C93.2307 2.81733 92.918 3.72733 92.918 4.838C92.918 5.93933 93.2307 6.84933 93.856 7.568C94.4813 8.27733 95.312 8.632 96.348 8.632ZM103.959 9.5H102.797V0.161999H106.549C107.454 0.161999 108.168 0.432666 108.691 0.974C109.214 1.51533 109.475 2.18267 109.475 2.976C109.475 3.76933 109.209 4.43667 108.677 4.978C108.154 5.51933 107.445 5.79 106.549 5.79H103.959V9.5ZM106.409 4.754C106.96 4.754 107.408 4.59067 107.753 4.264C108.098 3.928 108.271 3.49867 108.271 2.976C108.271 2.45333 108.098 2.02867 107.753 1.702C107.408 1.366 106.96 1.198 106.409 1.198H103.959V4.754H106.409Z" fill="#2B1414"/>
</svg>
