<svg width="92" height="24" viewBox="0 0 92 24" fill="none" xmlns="http://www.w3.org/2000/svg">
<path d="M80.1176 12.4706C82.4534 12.4706 84.3529 10.571 84.3529 8.23528C84.3529 5.89952 82.4534 4 80.1176 4C77.7818 4 75.8823 5.89952 75.8823 8.23528C75.8823 10.571 77.7818 12.4706 80.1176 12.4706ZM80.1176 6.11764C81.2855 6.11764 82.2352 7.0674 82.2352 8.23528C82.2352 9.40316 81.2855 10.3529 80.1176 10.3529C78.9497 10.3529 78 9.40316 78 8.23528C78 7.0674 78.9497 6.11764 80.1176 6.11764Z" fill="black"/>
<path d="M85.9156 11.8253C85.4882 11.4313 84.7973 11.4313 84.3699 11.8253C82.0262 13.9862 78.2111 13.9862 75.8663 11.8253C75.4389 11.4313 74.748 11.4313 74.3206 11.8253C73.8931 12.2194 73.8931 12.8564 74.3206 13.2515C75.6804 14.5052 77.4044 15.2198 79.1818 15.4063L76.0652 18.2797C75.6378 18.6737 75.6378 19.3107 76.0652 19.7048C76.4927 20.0989 77.1835 20.0989 77.611 19.7048L80.1176 17.3938L82.6242 19.7048C82.8373 19.9013 83.1172 20.0001 83.397 20.0001C83.6769 20.0001 83.9567 19.9013 84.1699 19.7048C84.5973 19.3107 84.5973 18.6737 84.1699 18.2797L81.0533 15.4063C82.8308 15.2198 84.5547 14.5052 85.9145 13.2515C86.342 12.8574 86.342 12.2194 85.9156 11.8253Z" fill="black"/>
<path fill-rule="evenodd" clip-rule="evenodd" d="M45.343 17.4535H46.3498C46.3498 17.4535 46.6539 17.4202 46.8092 17.2528C46.9521 17.0991 46.9475 16.8105 46.9475 16.8105C46.9475 16.8105 46.9278 15.4596 47.5548 15.2607C48.1729 15.0647 48.9666 16.5663 49.8078 17.1437C50.444 17.5807 50.9274 17.4849 50.9274 17.4849L53.1768 17.4535C53.1768 17.4535 54.3535 17.3811 53.7955 16.4559C53.7498 16.3802 53.4706 15.7715 52.1231 14.5207C50.7127 13.2116 50.9015 13.4234 52.6005 11.1589C53.6352 9.77983 54.0489 8.93789 53.9197 8.57728C53.7964 8.23383 53.0354 8.32461 53.0354 8.32461L50.5028 8.34039C50.5028 8.34039 50.315 8.31478 50.1758 8.39801C50.0397 8.47964 49.9521 8.66989 49.9521 8.66989C49.9521 8.66989 49.5513 9.73707 49.0167 10.6446C47.8889 12.5597 47.438 12.6608 47.2537 12.5419C46.8249 12.2647 46.9319 11.4285 46.9319 10.8344C46.9319 8.97859 47.2134 8.20479 46.3838 8.00448C46.1085 7.93794 45.9059 7.89404 45.2019 7.88695C44.2982 7.87757 43.5333 7.88969 43.1002 8.10189C42.8121 8.24298 42.5899 8.55739 42.7252 8.57546C42.8926 8.59786 43.2717 8.67767 43.4727 8.95138C43.7323 9.30443 43.7231 10.0974 43.7231 10.0974C43.7231 10.0974 43.8722 12.2821 43.3749 12.5535C43.0335 12.7396 42.5652 12.3596 41.5597 10.6222C41.0445 9.73226 40.6556 8.74855 40.6556 8.74855C40.6556 8.74855 40.5806 8.56471 40.4468 8.46638C40.2845 8.34725 40.0576 8.30929 40.0576 8.30929L37.651 8.32507C37.651 8.32507 37.2897 8.33513 37.157 8.49222C37.039 8.63194 37.1477 8.92097 37.1477 8.92097C37.1477 8.92097 39.0318 13.3291 41.1653 15.5506C43.1215 17.5873 45.343 17.4535 45.343 17.4535Z" fill="black"/>
<path d="M17.9732 6.04684L3.33988 11.1234C2.8659 11.2878 2.89462 11.8933 3.38252 12.0216L7.10099 12.9991L8.48873 16.9192C8.63369 17.3287 9.21657 17.4529 9.55399 17.1461L11.4765 15.3986L15.2487 17.8636C15.7104 18.1652 16.3678 17.9411 16.485 17.4421L18.9834 6.80846C19.1057 6.28759 18.5301 5.85363 17.9732 6.04684ZM16.1385 8.40672L9.34146 13.7577C9.27371 13.811 9.23059 13.8848 9.22051 13.9649L8.95882 16.0358C8.95027 16.1034 8.8441 16.1123 8.82144 16.0474L7.74476 12.9589C7.69544 12.8174 7.75974 12.6642 7.90105 12.5862L15.9277 8.15443C16.1123 8.05243 16.3013 8.27865 16.1385 8.40672Z" fill="black"/>
</svg>
