<svg width="670" height="60" viewBox="0 0 670 60" fill="none" xmlns="http://www.w3.org/2000/svg">
<rect x="-1" y="1" width="668" height="58" rx="4" transform="matrix(-1 0 0 1 668 0)" fill="url(#paint0_linear_6806_6381)" stroke="url(#paint1_linear_6806_6381)" stroke-width="2"/>
<path d="M37.18 29.72C38.0733 29.96 38.7533 30.3733 39.22 30.96C39.6867 31.5333 39.92 32.2533 39.92 33.12C39.92 34.3467 39.4667 35.3 38.56 35.98C37.6533 36.66 36.34 37 34.62 37H27.98V23H34.24C35.8133 23 37.04 23.3133 37.92 23.94C38.8 24.5667 39.24 25.4533 39.24 26.6C39.24 27.3333 39.06 27.9667 38.7 28.5C38.3533 29.0333 37.8467 29.44 37.18 29.72ZM30.54 28.98H34.02C34.86 28.98 35.5 28.8133 35.94 28.48C36.38 28.1467 36.6 27.6533 36.6 27C36.6 26.3467 36.38 25.8533 35.94 25.52C35.5 25.1733 34.86 25 34.02 25H30.54V28.98ZM34.54 35C36.38 35 37.3 34.3067 37.3 32.92C37.3 31.56 36.38 30.88 34.54 30.88H30.54V35H34.54ZM53.1019 37V29.92L49.5019 35.88H48.4219L44.8819 29.9V37H42.6019V26.32H45.2219L49.0219 33L53.0019 26.32H55.3419L55.3619 37H53.1019ZM68.7152 31.72C68.7152 31.8933 68.7018 32.14 68.6752 32.46H60.2952C60.4418 33.2467 60.8218 33.8733 61.4352 34.34C62.0618 34.7933 62.8352 35.02 63.7552 35.02C64.9285 35.02 65.8952 34.6333 66.6552 33.86L67.9952 35.4C67.5152 35.9733 66.9085 36.4067 66.1752 36.7C65.4418 36.9933 64.6152 37.14 63.6952 37.14C62.5218 37.14 61.4885 36.9067 60.5952 36.44C59.7018 35.9733 59.0085 35.3267 58.5152 34.5C58.0352 33.66 57.7952 32.7133 57.7952 31.66C57.7952 30.62 58.0285 29.6867 58.4952 28.86C58.9752 28.02 59.6352 27.3667 60.4752 26.9C61.3152 26.4333 62.2618 26.2 63.3152 26.2C64.3552 26.2 65.2818 26.4333 66.0952 26.9C66.9218 27.3533 67.5618 28 68.0152 28.84C68.4818 29.6667 68.7152 30.6267 68.7152 31.72ZM63.3152 28.2C62.5152 28.2 61.8352 28.44 61.2752 28.92C60.7285 29.3867 60.3952 30.0133 60.2752 30.8H66.3352C66.2285 30.0267 65.9018 29.4 65.3552 28.92C64.8085 28.44 64.1285 28.2 63.3152 28.2ZM76.3095 37.14C75.2029 37.14 74.2095 36.9067 73.3295 36.44C72.4495 35.9733 71.7629 35.3267 71.2695 34.5C70.7762 33.66 70.5295 32.7133 70.5295 31.66C70.5295 30.6067 70.7762 29.6667 71.2695 28.84C71.7629 28.0133 72.4429 27.3667 73.3095 26.9C74.1895 26.4333 75.1895 26.2 76.3095 26.2C77.3629 26.2 78.2829 26.4133 79.0695 26.84C79.8695 27.2667 80.4695 27.88 80.8695 28.68L78.9495 29.8C78.6429 29.3067 78.2562 28.94 77.7895 28.7C77.3362 28.4467 76.8362 28.32 76.2895 28.32C75.3562 28.32 74.5829 28.6267 73.9695 29.24C73.3562 29.84 73.0495 30.6467 73.0495 31.66C73.0495 32.6733 73.3495 33.4867 73.9495 34.1C74.5629 34.7 75.3429 35 76.2895 35C76.8362 35 77.3362 34.88 77.7895 34.64C78.2562 34.3867 78.6429 34.0133 78.9495 33.52L80.8695 34.64C80.4562 35.44 79.8495 36.06 79.0495 36.5C78.2629 36.9267 77.3495 37.14 76.3095 37.14ZM91.433 28.44H87.693V37H85.193V28.44H81.433V26.32H91.433V28.44ZM102.778 31.72C102.778 31.8933 102.764 32.14 102.738 32.46H94.3577C94.5043 33.2467 94.8843 33.8733 95.4977 34.34C96.1243 34.7933 96.8977 35.02 97.8177 35.02C98.991 35.02 99.9577 34.6333 100.718 33.86L102.058 35.4C101.578 35.9733 100.971 36.4067 100.238 36.7C99.5043 36.9933 98.6777 37.14 97.7577 37.14C96.5843 37.14 95.551 36.9067 94.6577 36.44C93.7643 35.9733 93.071 35.3267 92.5777 34.5C92.0977 33.66 91.8577 32.7133 91.8577 31.66C91.8577 30.62 92.091 29.6867 92.5577 28.86C93.0377 28.02 93.6977 27.3667 94.5377 26.9C95.3777 26.4333 96.3243 26.2 97.3777 26.2C98.4177 26.2 99.3443 26.4333 100.158 26.9C100.984 27.3533 101.624 28 102.078 28.84C102.544 29.6667 102.778 30.6267 102.778 31.72ZM97.3777 28.2C96.5777 28.2 95.8977 28.44 95.3377 28.92C94.791 29.3867 94.4577 30.0133 94.3377 30.8H100.398C100.291 30.0267 99.9643 29.4 99.4177 28.92C98.871 28.44 98.191 28.2 97.3777 28.2ZM122.439 34.88V39.38H120.099V37H111.859V39.38H109.539V34.88H110.039C110.719 34.8533 111.179 34.42 111.419 33.58C111.673 32.7267 111.839 31.5267 111.919 29.98L112.059 26.32H120.859V34.88H122.439ZM114.199 30.16C114.146 31.3867 114.046 32.3867 113.899 33.16C113.753 33.9333 113.486 34.5067 113.099 34.88H118.359V28.44H114.259L114.199 30.16ZM134.672 31.72C134.672 31.8933 134.659 32.14 134.632 32.46H126.252C126.399 33.2467 126.779 33.8733 127.392 34.34C128.019 34.7933 128.792 35.02 129.712 35.02C130.886 35.02 131.852 34.6333 132.612 33.86L133.952 35.4C133.472 35.9733 132.866 36.4067 132.132 36.7C131.399 36.9933 130.572 37.14 129.652 37.14C128.479 37.14 127.446 36.9067 126.552 36.44C125.659 35.9733 124.966 35.3267 124.472 34.5C123.992 33.66 123.752 32.7133 123.752 31.66C123.752 30.62 123.986 29.6867 124.452 28.86C124.932 28.02 125.592 27.3667 126.432 26.9C127.272 26.4333 128.219 26.2 129.272 26.2C130.312 26.2 131.239 26.4333 132.052 26.9C132.879 27.3533 133.519 28 133.972 28.84C134.439 29.6667 134.672 30.6267 134.672 31.72ZM129.272 28.2C128.472 28.2 127.792 28.44 127.232 28.92C126.686 29.3867 126.352 30.0133 126.232 30.8H132.292C132.186 30.0267 131.859 29.4 131.312 28.92C130.766 28.44 130.086 28.2 129.272 28.2ZM153.147 26.32V37H137.407V26.32H139.907V34.88H144.047V26.32H146.547V34.88H150.647V26.32H153.147ZM166.508 31.72C166.508 31.8933 166.495 32.14 166.468 32.46H158.088C158.235 33.2467 158.615 33.8733 159.228 34.34C159.855 34.7933 160.628 35.02 161.548 35.02C162.721 35.02 163.688 34.6333 164.448 33.86L165.788 35.4C165.308 35.9733 164.701 36.4067 163.968 36.7C163.235 36.9933 162.408 37.14 161.488 37.14C160.315 37.14 159.281 36.9067 158.388 36.44C157.495 35.9733 156.801 35.3267 156.308 34.5C155.828 33.66 155.588 32.7133 155.588 31.66C155.588 30.62 155.821 29.6867 156.288 28.86C156.768 28.02 157.428 27.3667 158.268 26.9C159.108 26.4333 160.055 26.2 161.108 26.2C162.148 26.2 163.075 26.4333 163.888 26.9C164.715 27.3533 165.355 28 165.808 28.84C166.275 29.6667 166.508 30.6267 166.508 31.72ZM161.108 28.2C160.308 28.2 159.628 28.44 159.068 28.92C158.521 29.3867 158.188 30.0133 158.068 30.8H164.128C164.021 30.0267 163.695 29.4 163.148 28.92C162.601 28.44 161.921 28.2 161.108 28.2ZM176.983 31.44C178.303 31.84 178.963 32.6933 178.963 34C178.963 34.96 178.603 35.7 177.883 36.22C177.163 36.74 176.096 37 174.683 37H169.243V26.32H174.463C175.769 26.32 176.789 26.56 177.523 27.04C178.256 27.52 178.623 28.2 178.623 29.08C178.623 29.6267 178.476 30.1 178.183 30.5C177.903 30.9 177.503 31.2133 176.983 31.44ZM171.623 30.78H174.243C175.536 30.78 176.183 30.3333 176.183 29.44C176.183 28.5733 175.536 28.14 174.243 28.14H171.623V30.78ZM174.483 35.18C175.856 35.18 176.543 34.7333 176.543 33.84C176.543 33.3733 176.383 33.0267 176.063 32.8C175.743 32.56 175.243 32.44 174.563 32.44H171.623V35.18H174.483ZM191.305 26.32V37H188.805V28.44H184.805L184.705 30.56C184.639 31.9733 184.505 33.16 184.305 34.12C184.119 35.0667 183.792 35.82 183.325 36.38C182.872 36.9267 182.245 37.2 181.445 37.2C181.072 37.2 180.612 37.1267 180.065 36.98L180.185 34.88C180.372 34.92 180.532 34.94 180.665 34.94C181.172 34.94 181.552 34.74 181.805 34.34C182.059 33.9267 182.219 33.44 182.285 32.88C182.365 32.3067 182.432 31.4933 182.485 30.44L182.665 26.32H191.305ZM204.672 31.72C204.672 31.8933 204.659 32.14 204.632 32.46H196.252C196.399 33.2467 196.779 33.8733 197.392 34.34C198.019 34.7933 198.792 35.02 199.712 35.02C200.886 35.02 201.852 34.6333 202.612 33.86L203.952 35.4C203.472 35.9733 202.866 36.4067 202.132 36.7C201.399 36.9933 200.572 37.14 199.652 37.14C198.479 37.14 197.446 36.9067 196.552 36.44C195.659 35.9733 194.966 35.3267 194.472 34.5C193.992 33.66 193.752 32.7133 193.752 31.66C193.752 30.62 193.986 29.6867 194.452 28.86C194.932 28.02 195.592 27.3667 196.432 26.9C197.272 26.4333 198.219 26.2 199.272 26.2C200.312 26.2 201.239 26.4333 202.052 26.9C202.879 27.3533 203.519 28 203.972 28.84C204.439 29.6667 204.672 30.6267 204.672 31.72ZM199.272 28.2C198.472 28.2 197.792 28.44 197.232 28.92C196.686 29.3867 196.352 30.0133 196.232 30.8H202.292C202.186 30.0267 201.859 29.4 201.312 28.92C200.766 28.44 200.086 28.2 199.272 28.2ZM207.047 23H210.007L209.507 32.36H207.527L207.047 23ZM208.527 37.14C208.06 37.14 207.673 36.9933 207.367 36.7C207.06 36.3933 206.907 36.02 206.907 35.58C206.907 35.14 207.06 34.7733 207.367 34.48C207.673 34.1867 208.06 34.04 208.527 34.04C208.98 34.04 209.353 34.1867 209.647 34.48C209.953 34.7733 210.107 35.14 210.107 35.58C210.107 36.02 209.953 36.3933 209.647 36.7C209.353 36.9933 208.98 37.14 208.527 37.14Z" fill="#292929"/>
<path d="M221.251 25.3916C220.885 25.8053 220.924 26.4372 221.337 26.8032C221.751 27.1692 222.383 27.1306 222.749 26.717L221.251 25.3916ZM265 28.1024L265.97 28.345L265 28.1024ZM255.5 34.1025L254.686 34.6838L255.5 34.1025ZM260 24.6025L259.437 23.7763L260 24.6025ZM335.545 50.9479C336.036 51.1995 336.639 51.0048 336.89 50.5132L340.99 42.5009C341.241 42.0093 341.046 41.4068 340.555 41.1552C340.063 40.9036 339.461 41.0983 339.209 41.59L335.565 48.712L328.443 45.0682C327.952 44.8166 327.349 45.0113 327.098 45.5029C326.846 45.9946 327.041 46.5971 327.532 46.8486L335.545 50.9479ZM223.769 25.6203C224.156 25.2255 224.148 24.5923 223.754 24.2062C223.359 23.8201 222.726 23.8271 222.339 24.222L223.769 25.6203ZM224.676 22.0527C224.254 22.409 224.2 23.0399 224.556 23.4619C224.913 23.8839 225.544 23.9372 225.966 23.581L224.676 22.0527ZM228.346 21.7499C228.798 21.433 228.908 20.8095 228.591 20.3571C228.274 19.9048 227.651 19.795 227.199 20.1119L228.346 21.7499ZM229.877 18.4017C229.399 18.6791 229.237 19.2911 229.514 19.7687C229.792 20.2463 230.404 20.4086 230.881 20.1313L229.877 18.4017ZM233.546 18.7259C234.045 18.4881 234.256 17.8913 234.018 17.3928C233.781 16.8943 233.184 16.683 232.685 16.9207L233.546 18.7259ZM235.599 15.669C235.084 15.8671 234.826 16.4456 235.024 16.9611C235.222 17.4767 235.801 17.7341 236.316 17.536L235.599 15.669ZM239.173 16.5634C239.702 16.4056 240.003 15.8487 239.845 15.3194C239.688 14.7901 239.131 14.489 238.601 14.6467L239.173 16.5634ZM241.673 13.8592C241.133 13.9754 240.79 14.5073 240.906 15.0472C241.022 15.5871 241.554 15.9306 242.094 15.8144L241.673 13.8592ZM245.062 15.2986C245.609 15.2262 245.995 14.7237 245.922 14.1762C245.85 13.6287 245.347 13.2435 244.8 13.3158L245.062 15.2986ZM247.97 13.0341C247.418 13.0587 246.991 13.5259 247.016 14.0777C247.04 14.6294 247.507 15.0567 248.059 15.0321L247.97 13.0341ZM251.053 15.0407C251.604 15.0698 252.075 14.6463 252.104 14.0947C252.133 13.5432 251.71 13.0726 251.158 13.0435L251.053 15.0407ZM254.343 13.3895C253.798 13.2975 253.282 13.6644 253.19 14.209C253.098 14.7536 253.465 15.2696 254.01 15.3616L254.343 13.3895ZM256.878 16.0512C257.404 16.2201 257.967 15.9308 258.136 15.4049C258.305 14.8791 258.016 14.3159 257.49 14.147L256.878 16.0512ZM260.507 15.4267C260.022 15.1616 259.415 15.3396 259.15 15.8241C258.885 16.3086 259.063 16.9163 259.547 17.1813L260.507 15.4267ZM261.846 18.8331C262.246 19.2135 262.879 19.1974 263.26 18.797C263.64 18.3967 263.624 17.7637 263.224 17.3833L261.846 18.8331ZM265.284 20.0971C265.03 19.6071 264.426 19.4165 263.936 19.6714C263.446 19.9262 263.255 20.53 263.51 21.02L265.284 20.0971ZM264.332 23.6341C264.407 24.1813 264.912 24.5638 265.459 24.4886C266.006 24.4133 266.389 23.9088 266.313 23.3617L264.332 23.6341ZM266.288 26.7184C266.365 26.1714 265.983 25.6662 265.436 25.59C264.889 25.5137 264.384 25.8954 264.308 26.4424L266.288 26.7184ZM263.571 29.332C263.374 29.848 263.633 30.4259 264.149 30.6228C264.665 30.8197 265.243 30.561 265.44 30.045L263.571 29.332ZM263.619 33.1965C263.977 32.7765 263.928 32.1453 263.508 31.7867C263.088 31.4281 262.456 31.4778 262.098 31.8978L263.619 33.1965ZM259.835 33.5562C259.322 33.7613 259.073 34.3433 259.278 34.8561C259.483 35.3688 260.065 35.6183 260.578 35.4131L259.835 33.5562ZM256.756 35.8137C257.298 35.921 257.824 35.5688 257.931 35.027C258.039 34.4853 257.686 33.9591 257.145 33.8518L256.756 35.8137ZM255.819 32.5189C255.668 31.9877 255.114 31.6796 254.583 31.8307C254.052 31.9817 253.744 32.5349 253.895 33.0661L255.819 32.5189ZM254.172 29.5464C253.962 30.0572 254.206 30.6415 254.717 30.8515C255.227 31.0615 255.812 30.8176 256.022 30.3068L254.172 29.5464ZM257.438 28.1375C257.803 27.7224 257.761 27.0905 257.346 26.7263C256.931 26.362 256.299 26.4032 255.935 26.8184L257.438 28.1375ZM258.198 24.6888C257.766 25.0324 257.694 25.6615 258.037 26.0939C258.381 26.5263 259.01 26.5982 259.442 26.2546L258.198 24.6888ZM261.8 24.6248C262.269 24.3338 262.414 23.7174 262.123 23.248C261.832 22.7786 261.216 22.6339 260.746 22.9249L261.8 24.6248ZM263.47 21.3897C262.978 21.6411 262.783 22.2435 263.035 22.7353C263.286 23.227 263.889 23.4219 264.38 23.1705L263.47 21.3897ZM267.075 21.9214C267.584 21.7082 267.824 21.1223 267.611 20.6128C267.398 20.1034 266.812 19.8633 266.303 20.0766L267.075 21.9214ZM269.214 18.9779C268.691 19.1548 268.41 19.7223 268.587 20.2455C268.764 20.7687 269.331 21.0495 269.855 20.8726L269.214 18.9779ZM272.704 20.0136C273.238 19.8715 273.556 19.3237 273.413 18.79C273.271 18.2563 272.723 17.9389 272.19 18.081L272.704 20.0136ZM275.214 17.376C274.672 17.4849 274.322 18.0121 274.43 18.5535C274.539 19.095 275.067 19.4456 275.608 19.3368L275.214 17.376ZM278.551 18.8349C279.098 18.7579 279.479 18.2521 279.402 17.7052C279.325 17.1583 278.819 16.7774 278.272 16.8544L278.551 18.8349ZM281.353 16.5087C280.802 16.555 280.394 17.0387 280.44 17.5891C280.487 18.1394 280.97 18.548 281.521 18.5017L281.353 16.5087ZM284.506 18.3315C285.058 18.3149 285.492 17.8539 285.476 17.3019C285.459 16.7498 284.998 16.3158 284.446 16.3324L284.506 18.3315ZM287.543 16.3205C286.991 16.3082 286.533 16.7459 286.521 17.298C286.509 17.8502 286.946 18.3077 287.498 18.32L287.543 16.3205ZM290.488 18.4633C291.039 18.5038 291.518 18.0902 291.559 17.5394C291.599 16.9886 291.186 16.5092 290.635 16.4687L290.488 18.4633ZM293.715 16.7741C293.167 16.7057 292.667 17.0946 292.599 17.6426C292.53 18.1906 292.919 18.6903 293.467 18.7587L293.715 16.7741ZM296.427 19.2043C296.971 19.3003 297.49 18.9372 297.586 18.3933C297.682 17.8494 297.319 17.3307 296.775 17.2348L296.427 19.2043ZM299.808 17.8494C299.269 17.726 298.733 18.0624 298.609 18.6007C298.486 19.139 298.822 19.6754 299.361 19.7988L299.808 17.8494ZM302.26 20.5416C302.791 20.6924 303.344 20.3839 303.495 19.8526C303.645 19.3213 303.337 18.7683 302.806 18.6176L302.26 20.5416ZM305.761 19.5396C305.238 19.3614 304.67 19.6407 304.492 20.1635C304.313 20.6862 304.593 21.2545 305.115 21.4327L305.761 19.5396ZM307.92 22.4723C308.432 22.678 309.014 22.4293 309.22 21.9168C309.426 21.4043 309.177 20.822 308.665 20.6162L307.92 22.4723ZM311.508 21.8484C311.007 21.6149 310.412 21.8314 310.179 22.3319C309.945 22.8324 310.162 23.4274 310.662 23.6609L311.508 21.8484ZM313.333 24.999C313.82 25.2603 314.426 25.0777 314.687 24.5911C314.948 24.1045 314.766 23.4983 314.279 23.237L313.333 24.999ZM316.968 24.783C316.498 24.4939 315.882 24.6409 315.593 25.1114C315.304 25.5819 315.451 26.1978 315.921 26.487L316.968 24.783ZM318.415 28.1244C318.867 28.4414 319.491 28.3318 319.808 27.8796C320.125 27.4273 320.015 26.8037 319.563 26.4867L318.415 28.1244ZM322.049 28.3475C321.618 28.0029 320.989 28.0734 320.644 28.505C320.299 28.9365 320.37 29.5658 320.801 29.9104L322.049 28.3475ZM323.068 31.8428C323.477 32.2145 324.109 32.1847 324.481 31.7763C324.853 31.3679 324.823 30.7354 324.414 30.3636L323.068 31.8428ZM326.644 32.5317C326.261 32.1336 325.628 32.1212 325.23 32.5041C324.832 32.8869 324.819 33.5199 325.202 33.918L326.644 32.5317ZM327.19 36.1309C327.545 36.5542 328.175 36.6097 328.599 36.255C329.022 35.9002 329.077 35.2695 328.723 34.8462L327.19 36.1309ZM330.638 37.2995C330.313 36.8526 329.688 36.7533 329.241 37.0777C328.794 37.4022 328.695 38.0275 329.019 38.4745L330.638 37.2995ZM330.68 40.9396C330.972 41.4083 331.588 41.5514 332.057 41.2593C332.526 40.9671 332.669 40.3503 332.377 39.8816L330.68 40.9396ZM333.929 42.5803C333.671 42.0921 333.066 41.9057 332.578 42.164C332.089 42.4222 331.903 43.0274 332.161 43.5155L333.929 42.5803ZM333.458 46.1898C333.681 46.695 334.271 46.9235 334.776 46.7002C335.282 46.4769 335.51 45.8864 335.287 45.3813L333.458 46.1898ZM336.445 48.2693C336.257 47.7499 335.684 47.481 335.165 47.6687C334.645 47.8564 334.376 48.4296 334.564 48.949L336.445 48.2693ZM222.749 26.717C223.08 26.3425 223.421 25.9769 223.769 25.6203L222.339 24.222C221.968 24.602 221.605 24.9919 221.251 25.3916L222.749 26.717ZM225.966 23.581C226.732 22.9341 227.527 22.3238 228.346 21.7499L227.199 20.1119C226.332 20.7191 225.489 21.366 224.676 22.0527L225.966 23.581ZM230.881 20.1313C231.753 19.6253 232.643 19.1569 233.546 18.7259L232.685 16.9207C231.734 17.3744 230.796 17.868 229.877 18.4017L230.881 20.1313ZM236.316 17.536C237.262 17.1726 238.216 16.8484 239.173 16.5634L238.601 14.6467C237.596 14.9463 236.594 15.287 235.599 15.669L236.316 17.536ZM242.094 15.8144C243.09 15.6 244.082 15.4282 245.062 15.2986L244.8 13.3158C243.766 13.4525 242.721 13.6336 241.673 13.8592L242.094 15.8144ZM248.059 15.0321C249.082 14.9865 250.082 14.9896 251.053 15.0407L251.158 13.0435C250.12 12.9888 249.054 12.9857 247.97 13.0341L248.059 15.0321ZM254.01 15.3616C255.021 15.5324 255.981 15.7629 256.878 16.0512L257.49 14.147C256.494 13.8269 255.44 13.5749 254.343 13.3895L254.01 15.3616ZM259.547 17.1813C260.423 17.6603 261.193 18.2124 261.846 18.8331L263.224 17.3833C262.431 16.6298 261.516 15.9788 260.507 15.4267L259.547 17.1813ZM263.51 21.02C263.919 21.8068 264.2 22.6765 264.332 23.6341L266.313 23.3617C266.151 22.1809 265.801 21.0907 265.284 20.0971L263.51 21.02ZM264.308 26.4424C264.244 26.8984 264.152 27.3709 264.03 27.8599L265.97 28.345C266.109 27.7907 266.215 27.2485 266.288 26.7184L264.308 26.4424ZM264.03 27.8599C263.896 28.3954 263.742 28.8849 263.571 29.332L265.44 30.045C265.64 29.5192 265.818 28.9532 265.97 28.345L264.03 27.8599ZM262.098 31.8978C261.387 32.7302 260.599 33.2508 259.835 33.5562L260.578 35.4131C261.637 34.9896 262.694 34.2797 263.619 33.1965L262.098 31.8978ZM257.145 33.8518C256.869 33.7971 256.652 33.7199 256.501 33.6428C256.339 33.5603 256.301 33.504 256.314 33.5213L254.686 34.6838C255.133 35.3094 255.968 35.6576 256.756 35.8137L257.145 33.8518ZM256.314 33.5213C256.068 33.1772 255.911 32.8423 255.819 32.5189L253.895 33.0661C254.053 33.6236 254.316 34.1649 254.686 34.6838L256.314 33.5213ZM256.022 30.3068C256.319 29.584 256.814 28.8494 257.438 28.1375L255.935 26.8184C255.217 27.6369 254.578 28.5576 254.172 29.5464L256.022 30.3068ZM259.442 26.2546C259.821 25.9538 260.199 25.6769 260.563 25.4288L259.437 23.7763C259.035 24.0505 258.616 24.3562 258.198 24.6888L259.442 26.2546ZM260.563 25.4288C260.968 25.1529 261.38 24.8849 261.8 24.6248L260.746 22.9249C260.302 23.2001 259.866 23.4839 259.437 23.7763L260.563 25.4288ZM264.38 23.1705C265.254 22.7238 266.153 22.3074 267.075 21.9214L266.303 20.0766C265.335 20.4816 264.39 20.9192 263.47 21.3897L264.38 23.1705ZM269.855 20.8726C270.787 20.5575 271.737 20.2711 272.704 20.0136L272.19 18.081C271.181 18.3495 270.189 18.6485 269.214 18.9779L269.855 20.8726ZM275.608 19.3368C276.577 19.142 277.558 18.9747 278.551 18.8349L278.272 16.8544C277.242 16.9995 276.221 17.1734 275.214 17.376L275.608 19.3368ZM281.521 18.5017C282.509 18.4185 283.504 18.3617 284.506 18.3315L284.446 16.3324C283.409 16.3637 282.377 16.4225 281.353 16.5087L281.521 18.5017ZM287.498 18.32C288.492 18.342 289.489 18.3898 290.488 18.4633L290.635 16.4687C289.602 16.3927 288.571 16.3433 287.543 16.3205L287.498 18.32ZM293.467 18.7587C294.455 18.882 295.442 19.0306 296.427 19.2043L296.775 17.2348C295.757 17.0551 294.736 16.9016 293.715 16.7741L293.467 18.7587ZM299.361 19.7988C300.332 20.0214 301.299 20.269 302.26 20.5416L302.806 18.6176C301.812 18.3356 300.812 18.0796 299.808 17.8494L299.361 19.7988ZM305.115 21.4327C306.059 21.7543 306.994 22.1008 307.92 22.4723L308.665 20.6162C307.706 20.2314 306.737 19.8726 305.761 19.5396L305.115 21.4327ZM310.662 23.6609C311.565 24.082 312.456 24.5281 313.333 24.999L314.279 23.237C313.368 22.748 312.444 22.2851 311.508 21.8484L310.662 23.6609ZM315.921 26.487C316.769 27.0079 317.601 27.5537 318.415 28.1244L319.563 26.4867C318.715 25.8925 317.85 25.3246 316.968 24.783L315.921 26.487ZM320.801 29.9104C321.577 30.5297 322.333 31.1738 323.068 31.8428L324.414 30.3636C323.647 29.6652 322.858 28.9932 322.049 28.3475L320.801 29.9104ZM325.202 33.918C325.888 34.6311 326.551 35.3687 327.19 36.1309L328.723 34.8462C328.054 34.0486 327.36 33.2771 326.644 32.5317L325.202 33.918ZM329.019 38.4745C329.598 39.2722 330.152 40.0939 330.68 40.9396L332.377 39.8816C331.825 38.9957 331.244 38.135 330.638 37.2995L329.019 38.4745ZM332.161 43.5155C332.621 44.3841 333.053 45.2755 333.458 46.1898L335.287 45.3813C334.864 44.4238 334.41 43.4902 333.929 42.5803L332.161 43.5155ZM334.564 48.949C334.733 49.4156 334.894 49.8876 335.048 50.3651L336.952 49.7503C336.79 49.251 336.621 48.7573 336.445 48.2693L334.564 48.949Z" fill="#FFD6D6"/>
<path d="M639 22C637.035 15.8118 638.304 17.2925 633 15C638.304 12.7075 637.035 14.1882 639 8C640.965 14.1882 639.696 12.7075 645 15C639.696 17.2925 640.965 15.8118 639 22Z" fill="white"/>
<path d="M461 32C459.035 25.8118 460.304 27.2925 455 25C460.304 22.7075 459.035 24.1882 461 18C462.965 24.1882 461.696 22.7075 467 25C461.696 27.2925 462.965 25.8118 461 32Z" fill="white"/>
<path d="M559 42C554.088 26.9716 557.26 30.5675 544 25C557.26 19.4325 554.088 23.0284 559 8C563.912 23.0284 560.74 19.4325 574 25C560.74 30.5675 563.912 26.9716 559 42Z" fill="white"/>
<path d="M509.5 48C506.061 37.3917 508.282 39.93 499 36C508.282 32.07 506.061 34.6083 509.5 24C512.939 34.6083 510.718 32.07 520 36C510.718 39.93 512.939 37.3917 509.5 48Z" fill="white"/>
<path d="M608.5 47C605.061 36.3917 607.282 38.93 598 35C607.282 31.07 605.061 33.6083 608.5 23C611.939 33.6083 609.718 31.07 619 35C609.718 38.93 611.939 36.3917 608.5 47Z" fill="white"/>
<defs>
<linearGradient id="paint0_linear_6806_6381" x1="0" y1="0" x2="359.409" y2="0" gradientUnits="userSpaceOnUse">
<stop stop-color="#FFD6D6"/>
<stop offset="1" stop-color="#FFF7F7"/>
</linearGradient>
<linearGradient id="paint1_linear_6806_6381" x1="194.709" y1="59.9999" x2="581.55" y2="59.9999" gradientUnits="userSpaceOnUse">
<stop stop-color="#FFD5D5"/>
<stop offset="1" stop-color="#FFE8C6"/>
</linearGradient>
</defs>
</svg>
