<svg width="54" height="54" viewBox="0 0 54 54" fill="none" xmlns="http://www.w3.org/2000/svg">
<path d="M42.9565 12.4894C42.3605 9.32912 39.6452 7.04297 36.4001 7.04297H31.2344C28.0555 7.04297 25.3401 9.32912 24.6779 12.4894C23.8832 12.7583 23.2871 13.498 23.2871 14.3721C23.2871 14.91 23.4858 15.3807 23.8169 15.7169C23.4858 16.0531 23.2871 16.5238 23.2871 17.0617C23.2871 17.9358 23.8832 18.7427 24.6779 18.9444C25.2739 22.1046 27.9892 24.3908 31.2344 24.3908H36.4001C39.579 24.3908 42.2943 22.1046 42.9565 18.9444C43.7513 18.6754 44.3473 17.9358 44.3473 17.0617C44.3473 16.5238 44.1486 16.0531 43.8175 15.7169C44.1486 15.3807 44.3473 14.91 44.3473 14.3721C44.4135 13.498 43.8175 12.7583 42.9565 12.4894ZM31.2344 8.38776H36.4001C38.8505 8.38776 40.9035 10.0688 41.5658 12.4221H41.3009L41.1684 12.2877C40.9035 11.8842 40.4399 11.7497 39.9763 11.7497H39.579C39.1154 11.7497 38.6518 11.9515 38.3206 12.2877C38.2544 12.3549 38.122 12.4221 37.9895 12.4221H37.5922C37.4597 12.4221 37.3272 12.3549 37.261 12.2877C36.9299 11.8842 36.4663 11.7497 36.0027 11.7497H35.6053C35.1418 11.7497 34.6782 11.9515 34.347 12.2877C34.2808 12.3549 34.1483 12.4221 34.0159 12.4221H33.6185C33.4861 12.4221 33.3536 12.3549 33.2874 12.2877C33.0225 11.8842 32.5589 11.7497 32.0953 11.7497H31.6979C31.2344 11.7497 30.7708 11.9515 30.4396 12.2877C30.3734 12.3549 30.2409 12.4221 30.1085 12.4221H29.7111C29.5787 12.4221 29.4462 12.3549 29.38 12.2877C29.0489 11.8842 28.5853 11.7497 28.1217 11.7497H27.7243C27.2607 11.7497 26.7971 11.9515 26.466 12.2877L26.3336 12.3549H26.1349C26.7309 10.0688 28.8502 8.38776 31.2344 8.38776ZM25.2739 13.6997H26.8634L27.3932 13.1618C27.5256 13.0945 27.5919 13.0273 27.7243 13.0273H28.1217C28.2541 13.0273 28.3866 13.0945 28.4528 13.1618C28.784 13.498 29.2475 13.6997 29.7111 13.6997H30.1085C30.5721 13.6997 31.0357 13.498 31.3668 13.1618C31.433 13.0945 31.5655 13.0273 31.6979 13.0273H32.0953C32.2278 13.0273 32.3602 13.0945 32.4264 13.1618C32.7576 13.498 33.2212 13.6997 33.6848 13.6997H34.0821C34.5457 13.6997 35.0093 13.498 35.3404 13.1618C35.4067 13.0945 35.5391 13.0273 35.6053 13.0273H36.0027C36.1352 13.0273 36.2676 13.0945 36.3338 13.1618C36.665 13.498 37.1286 13.6997 37.5922 13.6997H37.9895C38.4531 13.6997 38.9167 13.498 39.2478 13.1618C39.3141 13.0945 39.4465 13.0273 39.579 13.0273H39.9763C40.1088 13.0273 40.2412 13.0945 40.3075 13.1618L40.8373 13.6997H42.4267C42.7579 13.6997 43.089 13.9687 43.089 14.3721C43.089 14.7755 42.8241 15.0445 42.4267 15.0445H25.2739C24.9428 15.0445 24.6117 14.7755 24.6117 14.3721C24.6117 13.9687 24.9428 13.6997 25.2739 13.6997ZM36.4663 23.046H31.3006C28.8502 23.046 26.7971 21.365 26.1349 19.0116H41.632C40.9697 21.4323 38.9167 23.046 36.4663 23.046ZM42.4267 17.7341H25.2739C24.9428 17.7341 24.6117 17.4651 24.6117 17.0617C24.6117 16.6582 24.8766 16.3893 25.2739 16.3893H42.3605C42.6916 16.3893 43.0228 16.6582 43.0228 17.0617C43.0228 17.4651 42.7579 17.7341 42.4267 17.7341Z" fill="#E7426A"/>
<path d="M45.2295 25.1272C46.1797 24.305 47.4062 24.4461 48.2236 25.3879C49.0453 26.3444 49.0032 27.617 48.043 28.4504L37.2988 37.7668C35.6683 39.1808 33.8427 39.9119 31.6875 40.0139L20.3916 40.55L19.7002 40.5823L19.9482 41.2278C20.2034 41.8935 20.0207 42.6509 19.4854 43.1252L16.7822 45.5198C16.1194 46.1062 15.1222 46.0845 14.4844 45.4973L14.3623 45.3723L5.62305 35.5042C5.00174 34.8028 5.06496 33.6999 5.7666 33.0881L5.76855 33.0852L8.47266 30.6926V30.6917C9.17885 30.0662 10.2667 30.1322 10.8926 30.8391L10.9375 30.8899L11.3457 31.3508L11.7129 30.8557C12.5843 29.6804 13.5874 28.5743 14.7266 27.6975C17.3833 25.6503 20.9366 24.6908 23.8223 26.4524C25.6059 27.5428 27.608 28.45 29.7178 28.8284L29.7607 28.8362H35.8691C36.9439 28.8363 37.7171 29.4507 37.9648 30.4495L38.1611 31.2405L38.7773 30.7073L45.2295 25.1272ZM10.5977 31.0989C10.1157 30.5537 9.27242 30.5087 8.73242 30.9875L6.03223 33.3811L6.03027 33.3821C5.51156 33.8455 5.43444 34.6398 5.87402 35.1917L5.88184 35.2024L5.89062 35.2122L14.6572 45.1125C15.1089 45.6218 15.8765 45.696 16.417 45.3088L16.5225 45.2249L19.2256 42.8303C19.768 42.349 19.8179 41.5085 19.3369 40.9661L10.5977 31.0989ZM46.7783 25.0012C46.3799 24.9543 45.9826 25.0606 45.6338 25.3088L45.4873 25.4241L37.8691 32.0129L37.7988 32.0735L37.7559 32.1545C37.4268 32.766 36.8159 33.2218 35.8701 33.2219H22.6846C22.5752 33.2219 22.4854 33.1321 22.4854 33.0227C22.4855 32.9134 22.5753 32.8235 22.6846 32.8235H35.8701C36.3821 32.8234 36.8359 32.6434 37.1602 32.304C37.4817 31.9673 37.6396 31.5126 37.6396 31.0286C37.6396 30.5544 37.4873 30.1009 37.1689 29.762C36.8466 29.419 36.3918 29.2347 35.8701 29.2346H29.7842L29.708 29.2268C27.553 28.8487 25.5089 27.9454 23.6182 26.7903C20.9166 25.1393 17.7207 26.0804 15.417 27.6799L14.9688 28.0081C13.7491 28.947 12.7294 30.1154 11.8525 31.3342L11.6191 31.6584L11.8838 31.9573L19.0371 40.0334L19.1953 40.2122L19.4346 40.2014L31.6689 39.6213C33.7305 39.5253 35.4851 38.8199 37.043 37.469L47.7881 28.1536V28.1526C48.1791 27.8128 48.39 27.3721 48.4023 26.9045C48.4144 26.4444 48.2338 26.0028 47.9268 25.6448L47.9258 25.6438L47.8086 25.5178C47.5246 25.237 47.1704 25.0475 46.7783 25.0012Z" fill="#EE3686" stroke="#E7426A"/>
</svg>
