<svg width="46" height="46" viewBox="0 0 46 46" fill="none" xmlns="http://www.w3.org/2000/svg">
<path d="M36.5894 10.6395C36.0817 7.94746 33.7686 6 31.0043 6H26.6039C23.8959 6 21.5829 7.94746 21.0187 10.6395C20.3417 10.8686 19.834 11.4987 19.834 12.2433C19.834 12.7016 20.0032 13.1025 20.2853 13.3889C20.0032 13.6753 19.834 14.0762 19.834 14.5345C19.834 15.2791 20.3417 15.9664 21.0187 16.1382C21.5265 18.8303 23.8395 20.7778 26.6039 20.7778H31.0043C33.7122 20.7778 36.0253 18.8303 36.5894 16.1382C37.2664 15.9091 37.7742 15.2791 37.7742 14.5345C37.7742 14.0762 37.6049 13.6753 37.3228 13.3889C37.6049 13.1025 37.7742 12.7016 37.7742 12.2433C37.8306 11.4987 37.3228 10.8686 36.5894 10.6395ZM26.6039 7.14556H31.0043C33.0917 7.14556 34.8405 8.57752 35.4047 10.5823H35.179L35.0662 10.4677C34.8405 10.124 34.4456 10.0095 34.0507 10.0095H33.7122C33.3173 10.0095 32.9224 10.1813 32.6403 10.4677C32.5839 10.525 32.4711 10.5823 32.3583 10.5823H32.0198C31.9069 10.5823 31.7941 10.525 31.7377 10.4677C31.4556 10.124 31.0607 10.0095 30.6658 10.0095H30.3273C29.9324 10.0095 29.5375 10.1813 29.2554 10.4677C29.199 10.525 29.0861 10.5823 28.9733 10.5823H28.6348C28.522 10.5823 28.4092 10.525 28.3527 10.4677C28.1271 10.124 27.7322 10.0095 27.3373 10.0095H26.9988C26.6039 10.0095 26.209 10.1813 25.9269 10.4677C25.8705 10.525 25.7576 10.5823 25.6448 10.5823H25.3063C25.1935 10.5823 25.0806 10.525 25.0242 10.4677C24.7421 10.124 24.3472 10.0095 23.9523 10.0095H23.6138C23.2189 10.0095 22.824 10.1813 22.5419 10.4677L22.4291 10.525H22.2599C22.7676 8.57752 24.5729 7.14556 26.6039 7.14556ZM21.5265 11.6705H22.8804L23.3318 11.2123C23.4446 11.155 23.501 11.0978 23.6138 11.0978H23.9523C24.0652 11.0978 24.178 11.155 24.2344 11.2123C24.5165 11.4987 24.9114 11.6705 25.3063 11.6705H25.6448C26.0397 11.6705 26.4346 11.4987 26.7167 11.2123C26.7731 11.155 26.8859 11.0978 26.9988 11.0978H27.3373C27.4501 11.0978 27.5629 11.155 27.6193 11.2123C27.9014 11.4987 28.2963 11.6705 28.6912 11.6705H29.0297C29.4246 11.6705 29.8196 11.4987 30.1016 11.2123C30.158 11.155 30.2709 11.0978 30.3273 11.0978H30.6658C30.7786 11.0978 30.8914 11.155 30.9479 11.2123C31.2299 11.4987 31.6249 11.6705 32.0198 11.6705H32.3583C32.7532 11.6705 33.1481 11.4987 33.4302 11.2123C33.4866 11.155 33.5994 11.0978 33.7122 11.0978H34.0507C34.1636 11.0978 34.2764 11.155 34.3328 11.2123L34.7841 11.6705H36.1381C36.4202 11.6705 36.7023 11.8997 36.7023 12.2433C36.7023 12.587 36.4766 12.8161 36.1381 12.8161H21.5265C21.2444 12.8161 20.9623 12.587 20.9623 12.2433C20.9623 11.8997 21.2444 11.6705 21.5265 11.6705ZM31.0607 19.6322H26.6603C24.5729 19.6322 22.824 18.2003 22.2599 16.1955H35.4611C34.897 18.2575 33.1481 19.6322 31.0607 19.6322ZM36.1381 15.1072H21.5265C21.2444 15.1072 20.9623 14.8781 20.9623 14.5345C20.9623 14.1908 21.188 13.9617 21.5265 13.9617H36.0817C36.3638 13.9617 36.6458 14.1908 36.6458 14.5345C36.6458 14.8781 36.4202 15.1072 36.1381 15.1072Z" fill="#E7426A"/>
<path d="M38.5771 21.4609C39.3524 20.7901 40.3505 20.9004 41.0225 21.6729V21.6738C41.6987 22.4604 41.6622 23.4984 40.877 24.1797L31.7246 32.1152C30.3481 33.3089 28.8087 33.9256 26.9893 34.0117L17.3672 34.4678L16.6768 34.501L16.9238 35.1465C17.1302 35.6849 16.9826 36.2972 16.5498 36.6807L14.2471 38.7197C13.6756 39.2257 12.7963 39.1727 12.29 38.6016L4.8457 30.1953C4.34307 29.628 4.3949 28.7348 4.96094 28.2412L4.96387 28.2393L7.2666 26.2002C7.83753 25.6943 8.71757 25.7477 9.22363 26.3193L9.26172 26.3623L9.6709 26.8242L10.0381 26.3281C10.7775 25.3308 11.6266 24.3947 12.5898 23.6533V23.6523C14.8411 21.9176 17.8339 21.1187 20.2549 22.5967C21.7792 23.5285 23.4928 24.3054 25.3018 24.6299L25.3457 24.6377H30.5557C31.4375 24.6379 32.0658 25.1388 32.2686 25.9561L32.4648 26.7471L33.0811 26.2139L38.5771 21.4609ZM9.08301 26.4424C8.6451 25.9473 7.87995 25.9061 7.38965 26.3408L5.08984 28.3799L5.08789 28.3809C4.61713 28.8013 4.546 29.5231 4.94531 30.0244L4.96289 30.0439L12.4307 38.4785C12.841 38.9411 13.5375 39.008 14.0283 38.6562L14.124 38.5801L16.4268 36.541C16.8889 36.1311 16.958 35.4338 16.6045 34.9424L16.5283 34.8477L9.08301 26.4424ZM39.8564 21.2236C39.4974 21.1815 39.1418 21.278 38.8311 21.499L38.7002 21.6016L32.21 27.2148L32.1406 27.2744L32.0977 27.3555C31.8296 27.8534 31.3332 28.2266 30.5557 28.2266H19.3242C19.2721 28.2266 19.2287 28.1829 19.2285 28.1309C19.2285 28.0786 19.272 28.0352 19.3242 28.0352H30.5557C31.0099 28.0352 31.4162 27.8739 31.708 27.5684C31.997 27.2657 32.1377 26.86 32.1377 26.4316C32.1377 26.0122 32.003 25.6064 31.7168 25.3018C31.4266 24.9929 31.0182 24.8291 30.5557 24.8291H25.376L25.3184 24.8232C23.495 24.503 21.7631 23.7383 20.1582 22.7578C17.6644 21.2338 14.6951 22.2672 12.7061 23.7998C11.6597 24.6053 10.7866 25.6067 10.0371 26.6484L9.80371 26.9727L10.0684 27.2725L16.1611 34.1514L16.3203 34.3311L16.5596 34.3193L26.9814 33.8252C28.7542 33.7425 30.2649 33.1353 31.6045 31.9736L40.7568 24.0381C41.1046 23.7359 41.2946 23.3405 41.3057 22.9199C41.3164 22.5069 41.1545 22.1136 40.8828 21.7969L40.8818 21.7959C40.6155 21.4869 40.2596 21.2711 39.8564 21.2236Z" fill="#EE3686" stroke="#E7426A"/>
</svg>
