<svg width="295" height="395" viewBox="0 0 295 395" fill="none" xmlns="http://www.w3.org/2000/svg">
<path d="M143.965 394.726C137.681 394.726 131.397 392.214 127.626 387.189L125.741 384.677C91.1789 346.992 0.688477 246.499 0.688477 143.493C0.688477 97.0148 30.852 7.19892 144.593 0.918091V1.54617H145.222V0.918091V1.54617C160.304 -0.338076 194.238 6.57084 214.346 15.364C250.794 30.438 294.154 64.3545 294.154 139.725C295.411 150.402 301.067 231.425 161.56 386.561C157.162 391.586 150.877 394.726 143.965 394.726ZM145.222 19.7606C21.4259 26.6695 19.5407 138.468 19.5407 143.493C19.5407 239.59 106.889 335.686 139.566 372.115L141.451 374.628C142.08 375.256 143.337 375.884 143.965 375.884C145.222 375.884 146.479 375.256 147.107 374C220.631 292.977 251.422 233.937 264.619 198.764C278.444 161.079 275.302 142.237 275.302 141.609V139.725C275.302 104.552 265.247 76.2881 244.51 56.1894C206.806 19.7606 148.364 19.7606 145.222 19.7606Z" fill="#826A5C"/>
<path d="M148.363 203.789C114.429 203.789 86.7793 176.153 86.7793 142.237C86.7793 108.32 114.429 80.6845 148.363 80.6845C182.297 80.6845 209.947 108.32 209.947 142.237C209.947 176.153 182.925 203.789 148.363 203.789ZM148.363 99.527C124.484 99.527 105.631 118.998 105.631 142.237C105.631 166.104 125.112 184.946 148.363 184.946C171.614 184.946 191.095 165.476 191.095 142.237C191.723 118.37 172.243 99.527 148.363 99.527Z" fill="#826A5C"/>
</svg>
