<svg width="103" height="21" viewBox="0 0 103 21" fill="none" xmlns="http://www.w3.org/2000/svg">
<path d="M33.826 11.904C34.4513 12.072 34.9273 12.3613 35.254 12.772C35.5807 13.1733 35.744 13.6773 35.744 14.284C35.744 15.1427 35.4267 15.81 34.792 16.286C34.1573 16.762 33.238 17 32.034 17H27.386V7.2H31.768C32.8693 7.2 33.728 7.41933 34.344 7.858C34.96 8.29667 35.268 8.91733 35.268 9.72C35.268 10.2333 35.142 10.6767 34.89 11.05C34.6473 11.4233 34.2927 11.708 33.826 11.904ZM29.178 11.386H31.614C32.202 11.386 32.65 11.2693 32.958 11.036C33.266 10.8027 33.42 10.4573 33.42 10C33.42 9.54267 33.266 9.19733 32.958 8.964C32.65 8.72133 32.202 8.6 31.614 8.6H29.178V11.386ZM31.978 15.6C33.266 15.6 33.91 15.1147 33.91 14.144C33.91 13.192 33.266 12.716 31.978 12.716H29.178V15.6H31.978ZM44.5985 14.004H43.2405V17H41.4905V9.524H43.2405V12.548H44.6405L46.8525 9.524H48.7285L46.0125 13.122L48.9105 17H46.8525L44.5985 14.004ZM53.2307 17.098C52.4747 17.098 51.7933 16.9347 51.1867 16.608C50.58 16.2813 50.104 15.8287 49.7587 15.25C49.4227 14.662 49.2547 13.9993 49.2547 13.262C49.2547 12.5247 49.4227 11.8667 49.7587 11.288C50.104 10.7093 50.58 10.2567 51.1867 9.93C51.7933 9.60333 52.4747 9.44 53.2307 9.44C53.996 9.44 54.682 9.60333 55.2887 9.93C55.8953 10.2567 56.3667 10.7093 56.7027 11.288C57.048 11.8667 57.2207 12.5247 57.2207 13.262C57.2207 13.9993 57.048 14.662 56.7027 15.25C56.3667 15.8287 55.8953 16.2813 55.2887 16.608C54.682 16.9347 53.996 17.098 53.2307 17.098ZM53.2307 15.6C53.8747 15.6 54.4067 15.3853 54.8267 14.956C55.2467 14.5267 55.4567 13.962 55.4567 13.262C55.4567 12.562 55.2467 11.9973 54.8267 11.568C54.4067 11.1387 53.8747 10.924 53.2307 10.924C52.5867 10.924 52.0547 11.1387 51.6347 11.568C51.224 11.9973 51.0187 12.562 51.0187 13.262C51.0187 13.962 51.224 14.5267 51.6347 14.956C52.0547 15.3853 52.5867 15.6 53.2307 15.6ZM63.0934 9.44C63.8214 9.44 64.4701 9.59867 65.0394 9.916C65.6181 10.2333 66.0708 10.6813 66.3974 11.26C66.7241 11.8387 66.8874 12.506 66.8874 13.262C66.8874 14.018 66.7241 14.69 66.3974 15.278C66.0708 15.8567 65.6181 16.3047 65.0394 16.622C64.4701 16.9393 63.8214 17.098 63.0934 17.098C62.0854 17.098 61.2874 16.762 60.6994 16.09V19.716H58.9494V9.524H60.6154V10.504C60.9048 10.1493 61.2594 9.88333 61.6794 9.706C62.1088 9.52867 62.5801 9.44 63.0934 9.44ZM62.8974 15.6C63.5414 15.6 64.0688 15.3853 64.4794 14.956C64.8994 14.5267 65.1094 13.962 65.1094 13.262C65.1094 12.562 64.8994 11.9973 64.4794 11.568C64.0688 11.1387 63.5414 10.924 62.8974 10.924C62.4774 10.924 62.0994 11.022 61.7634 11.218C61.4274 11.4047 61.1614 11.6753 60.9654 12.03C60.7694 12.3847 60.6714 12.7953 60.6714 13.262C60.6714 13.7287 60.7694 14.1393 60.9654 14.494C61.1614 14.8487 61.4274 15.124 61.7634 15.32C62.0994 15.5067 62.4774 15.6 62.8974 15.6ZM72.9858 13.108C73.4524 13.2387 73.8118 13.4533 74.0638 13.752C74.3251 14.0413 74.4558 14.3913 74.4558 14.802C74.4558 15.2593 74.3018 15.6653 73.9938 16.02C73.6858 16.3653 73.2611 16.636 72.7198 16.832C72.1784 17.028 71.5624 17.126 70.8718 17.126C70.2931 17.126 69.7284 17.0607 69.1778 16.93C68.6271 16.79 68.1278 16.594 67.6798 16.342L68.1838 15.04C68.5478 15.2453 68.9584 15.404 69.4158 15.516C69.8731 15.628 70.3304 15.684 70.7878 15.684C71.3758 15.684 71.8331 15.5953 72.1598 15.418C72.4958 15.2313 72.6638 14.9793 72.6638 14.662C72.6638 14.3727 72.5331 14.1487 72.2718 13.99C72.0198 13.8313 71.6604 13.752 71.1938 13.752H69.7378V12.576H71.0538C71.4924 12.576 71.8331 12.5013 72.0758 12.352C72.3278 12.2027 72.4538 11.9927 72.4538 11.722C72.4538 11.4513 72.3044 11.2367 72.0058 11.078C71.7071 10.9193 71.2964 10.84 70.7738 10.84C70.0271 10.84 69.2384 11.022 68.4078 11.386L67.9598 10.098C68.9398 9.64067 69.9291 9.412 70.9278 9.412C71.5624 9.412 72.1318 9.50067 72.6358 9.678C73.1398 9.846 73.5318 10.0887 73.8118 10.406C74.1011 10.714 74.2458 11.0687 74.2458 11.47C74.2458 11.834 74.1338 12.1607 73.9098 12.45C73.6858 12.73 73.3778 12.9493 72.9858 13.108ZM76.2717 9.524H78.0217V14.452L82.1517 9.524H83.7477V17H81.9977V12.072L77.8817 17H76.2717V9.524ZM86.1018 9.524H87.8518V12.562H91.6178V9.524H93.3678V17H91.6178V14.046H87.8518V17H86.1018V9.524ZM102.769 9.524L99.2691 17.602C98.9424 18.414 98.5458 18.9833 98.0791 19.31C97.6124 19.646 97.0478 19.814 96.3851 19.814C96.0118 19.814 95.6431 19.7533 95.2791 19.632C94.9151 19.5107 94.6164 19.3427 94.3831 19.128L95.0831 17.84C95.2511 17.9987 95.4471 18.1247 95.6711 18.218C95.9044 18.3113 96.1378 18.358 96.3711 18.358C96.6791 18.358 96.9311 18.2787 97.1271 18.12C97.3324 17.9613 97.5191 17.6953 97.6871 17.322L97.8131 17.028L94.5511 9.524H96.3711L98.7231 15.054L101.089 9.524H102.769Z" fill="black" fill-opacity="0.88"/>
<path d="M14.2911 5.37085H1V20H14.2911V5.37085Z" stroke="black" stroke-width="1.4" stroke-miterlimit="10" stroke-linecap="round" stroke-linejoin="round"/>
<path d="M4.12207 7.15493V3.40845C4.12207 2.07042 5.10329 1 6.26292 1H9.02818C10.1878 1 11.169 2.07042 11.169 3.40845V7.15493" stroke="black" stroke-width="1.4" stroke-miterlimit="10" stroke-linecap="round" stroke-linejoin="round"/>
</svg>
